<svg width="26" height="26" viewBox="0 0 26 26" fill="none" xmlns="http://www.w3.org/2000/svg">
<g opacity="0.2">
<path fill-rule="evenodd" clip-rule="evenodd" d="M15.5232 21.6672C15.4506 21.6672 15.3758 21.664 15.3011 21.6564C14.3477 21.5621 13.6002 20.8894 13.3944 19.9415L10.4878 6.51679L7.49458 13.4306C7.32233 13.8271 6.93125 14.0839 6.50008 14.0839H3.25008C2.651 14.0839 2.16675 13.5985 2.16675 13.0005C2.16675 12.4015 2.651 11.9172 3.25008 11.9172H5.78941L8.50425 5.64579C8.88883 4.76179 9.736 4.24721 10.6991 4.34362C11.6524 4.43787 12.3999 5.11062 12.6057 6.05854L15.5123 19.4832L18.5056 12.5694C18.6778 12.1729 19.0678 11.9172 19.5001 11.9172H22.7501C23.3492 11.9172 23.8334 12.4015 23.8334 13.0005C23.8334 13.5985 23.3492 14.0839 22.7501 14.0839H20.2107L17.4959 20.3542C17.1417 21.17 16.3822 21.6672 15.5232 21.6672Z" fill="black"/>
</g>
</svg>
