<svg width="26" height="26" viewBox="0 0 26 26" fill="none" xmlns="http://www.w3.org/2000/svg">
<g opacity="0.2">
<path fill-rule="evenodd" clip-rule="evenodd" d="M4.76969 12.5906C5.97869 13.0055 6.94178 14.0173 7.34478 15.3L7.38811 15.43C7.84961 16.7907 7.66219 18.2553 6.88869 19.3538C6.74786 19.5532 6.77928 19.7915 6.92769 19.9042L9.17236 21.6093C9.25144 21.6689 9.32836 21.6689 9.37603 21.6635C9.43019 21.6548 9.50928 21.6256 9.57319 21.5346L9.82344 21.1792C10.5699 20.1208 11.7724 19.4676 13.042 19.4307C14.4677 19.4015 15.7482 20.0547 16.5455 21.2063L16.6734 21.3916C16.7373 21.4826 16.8153 21.5129 16.8705 21.5216C16.9182 21.5313 16.9962 21.5281 17.0742 21.4674L19.3069 19.7828C19.4629 19.6658 19.4976 19.4156 19.3817 19.2477L19.1 18.8414C18.3742 17.7927 18.1586 16.4321 18.5237 15.2025C18.9202 13.8635 19.9288 12.804 21.2234 12.3707L21.4411 12.297C21.6155 12.2396 21.7098 12.0229 21.648 11.8236L20.7954 9.0925C20.7554 8.96466 20.673 8.90725 20.6275 8.88341C20.5625 8.84983 20.4921 8.84441 20.4249 8.86716L20.0566 8.98958C18.7967 9.40883 17.4068 9.18133 16.3397 8.37858L16.2227 8.29083C15.2087 7.52816 14.6053 6.29858 14.6096 5.00291L14.6118 4.69958C14.6118 4.5555 14.5435 4.46558 14.5024 4.42441C14.4634 4.38433 14.3973 4.33666 14.3041 4.33666L11.5449 4.33341C11.3759 4.33341 11.2383 4.49483 11.2372 4.69416L11.2361 4.95633C11.2307 6.27258 10.6143 7.52491 9.58728 8.30816L9.44753 8.41433C8.31761 9.27341 6.84428 9.51608 5.50961 9.06108C5.45869 9.04375 5.41103 9.047 5.36553 9.07083C5.33086 9.08816 5.26803 9.13258 5.23769 9.23116L4.35261 12.0435C4.28869 12.2482 4.39378 12.4617 4.59203 12.5299L4.76969 12.5906ZM9.33161 23.8334C8.80511 23.8334 8.29378 23.6622 7.86261 23.334L5.61794 21.6299C4.54544 20.8174 4.30819 19.2542 5.08819 18.1459C5.49336 17.5717 5.57678 16.834 5.33844 16.1342L5.27886 15.9522C5.08061 15.3217 4.62778 14.832 4.06769 14.6402H4.06661L3.89003 14.5785C2.57053 14.1267 1.86636 12.7282 2.28561 11.3935L3.16961 8.58225C3.37003 7.94633 3.80228 7.43283 4.38728 7.13708C4.95928 6.84891 5.60603 6.8045 6.21053 7.01141C6.85944 7.23241 7.57986 7.11216 8.13561 6.68966L8.27536 6.5835C8.76936 6.2065 9.06728 5.59441 9.06944 4.94766L9.07053 4.68658C9.07594 3.29558 10.1864 2.16675 11.5438 2.16675H11.5481L14.3074 2.17C14.9595 2.17108 15.5749 2.42891 16.0385 2.89583C16.5184 3.37791 16.7806 4.0225 16.7784 4.71041L16.7763 5.01266C16.7741 5.62583 17.0547 6.20541 17.5281 6.56075L17.644 6.6485C18.1413 7.02225 18.7891 7.1295 19.3709 6.9345L19.7381 6.81208C20.3632 6.60408 21.0284 6.655 21.6144 6.95508C22.2157 7.26275 22.6599 7.7925 22.8635 8.44791L23.7161 11.179C24.1278 12.4985 23.4149 13.922 22.129 14.3521L21.9113 14.4247C21.2873 14.6348 20.7965 15.1548 20.6004 15.8178C20.4206 16.4256 20.5246 17.094 20.881 17.6075L21.1627 18.0137C21.9362 19.1317 21.6892 20.7004 20.6124 21.5118L18.3796 23.1975C17.8434 23.6027 17.1858 23.7662 16.526 23.6612C15.8609 23.5539 15.2802 23.1856 14.8913 22.6244L14.7634 22.4381C14.3843 21.8921 13.7776 21.5606 13.1417 21.5963C12.5047 21.6137 11.9544 21.9159 11.5947 22.4272L11.3444 22.7826C10.9523 23.3383 10.3705 23.7012 9.70861 23.8052C9.58186 23.8247 9.45619 23.8334 9.33161 23.8334ZM13 11.375C12.1041 11.375 11.375 12.1041 11.375 13C11.375 13.8959 12.1041 14.625 13 14.625C13.8959 14.625 14.625 13.8959 14.625 13C14.625 12.1041 13.8959 11.375 13 11.375ZM13 16.7916C10.9092 16.7916 9.20832 15.0908 9.20832 13C9.20832 10.9091 10.9092 9.20831 13 9.20831C15.0908 9.20831 16.7917 10.9091 16.7917 13C16.7917 15.0908 15.0908 16.7916 13 16.7916Z" fill="black"/>
</g>
</svg>
