<svg width="26" height="26" viewBox="0 0 26 26" fill="none" xmlns="http://www.w3.org/2000/svg">
<g opacity="0.2">
<path fill-rule="evenodd" clip-rule="evenodd" d="M7.58333 17.3334C7.58333 16.7375 8.07083 16.25 8.66667 16.25C9.2625 16.25 9.75 16.7375 9.75 17.3334C9.75 17.9292 9.2625 18.4167 8.66667 18.4167C8.07083 18.4167 7.58333 17.9292 7.58333 17.3334ZM13 16.25H17.3333C17.9292 16.25 18.4167 16.7375 18.4167 17.3334C18.4167 17.9292 17.9292 18.4167 17.3333 18.4167H13C12.4042 18.4167 11.9167 17.9292 11.9167 17.3334C11.9167 16.7375 12.4042 16.25 13 16.25ZM19.5 21.6667H6.5C5.90308 21.6667 5.41667 21.1803 5.41667 20.5834V14.0834H20.5833V20.5834C20.5833 21.1803 20.0969 21.6667 19.5 21.6667ZM6.5 6.50002H7.58333V7.58335C7.58333 8.17919 8.07083 8.66669 8.66667 8.66669C9.2625 8.66669 9.75 8.17919 9.75 7.58335V6.50002H16.25V7.58335C16.25 8.17919 16.7375 8.66669 17.3333 8.66669C17.9292 8.66669 18.4167 8.17919 18.4167 7.58335V6.50002H19.5C20.0969 6.50002 20.5833 6.98644 20.5833 7.58335V11.9167H5.41667V7.58335C5.41667 6.98644 5.90308 6.50002 6.5 6.50002ZM19.5 4.33335H18.4167V3.25002C18.4167 2.65419 17.9292 2.16669 17.3333 2.16669C16.7375 2.16669 16.25 2.65419 16.25 3.25002V4.33335H9.75V3.25002C9.75 2.65419 9.2625 2.16669 8.66667 2.16669C8.07083 2.16669 7.58333 2.65419 7.58333 3.25002V4.33335H6.5C4.70817 4.33335 3.25 5.79152 3.25 7.58335V20.5834C3.25 22.3752 4.70817 23.8334 6.5 23.8334H19.5C21.2918 23.8334 22.75 22.3752 22.75 20.5834V7.58335C22.75 5.79152 21.2918 4.33335 19.5 4.33335Z" fill="black"/>
</g>
</svg>
