<svg width="26" height="26" viewBox="0 0 26 26" fill="none" xmlns="http://www.w3.org/2000/svg">
<g opacity="0.2">
<path fill-rule="evenodd" clip-rule="evenodd" d="M12.9998 3.24988C15.7959 3.24988 18.2594 5.04929 19.1477 7.63196C21.7899 7.99055 23.8331 10.2612 23.8331 12.9999C23.8331 14.3226 23.3521 15.5955 22.4789 16.5846C22.2644 16.8262 21.9665 16.9508 21.6664 16.9508C21.4119 16.9508 21.1562 16.862 20.9493 16.68C20.5019 16.2824 20.4585 15.5988 20.855 15.1492C21.3783 14.5577 21.6664 13.7929 21.6664 12.9999C21.6664 11.208 20.2083 9.74988 18.4164 9.74988H18.3081C17.7924 9.74988 17.3483 9.38588 17.2464 8.87996C16.8413 6.87363 15.0559 5.41654 12.9998 5.41654C10.9447 5.41654 9.15828 6.87363 8.75419 8.87996C8.65236 9.38588 8.20711 9.74988 7.69144 9.74988H7.58311C5.79128 9.74988 4.33311 11.208 4.33311 12.9999C4.33311 13.7929 4.62128 14.5577 5.14561 15.1492C5.54103 15.5988 5.49878 16.2824 5.05028 16.68C4.60069 17.0765 3.91711 17.032 3.52169 16.5846C2.64744 15.5955 2.16644 14.3226 2.16644 12.9999C2.16644 10.2612 4.20961 7.99055 6.85186 7.63196C7.74128 5.04929 10.2048 3.24988 12.9998 3.24988ZM14.0835 19.1141L15.4973 17.7491C15.9285 17.3342 16.6142 17.3461 17.0291 17.7762C17.4451 18.2074 17.4332 18.8931 17.0031 19.308L13.7531 22.4464C13.5419 22.6479 13.271 22.7498 13.0002 22.7498C12.7229 22.7498 12.4455 22.6447 12.2343 22.4324L8.98429 19.1824C8.56071 18.7599 8.56071 18.0741 8.98429 17.6505C9.40679 17.228 10.0925 17.228 10.5161 17.6505L11.9169 19.0513V12.9998C11.9169 12.4007 12.4022 11.9164 13.0002 11.9164C13.5982 11.9164 14.0835 12.4007 14.0835 12.9998V19.1141Z" fill="black"/>
</g>
</svg>
