<svg width="127" height="23" viewBox="0 0 127 23" fill="none" xmlns="http://www.w3.org/2000/svg">
<path fill-rule="evenodd" clip-rule="evenodd" d="M13.1343 19.8104H22.8363V2.37573H13.1343V19.8104Z" fill="#FF3A29"/>
<path fill-rule="evenodd" clip-rule="evenodd" d="M13.7504 11.0931C13.7504 7.55606 15.4065 4.40583 17.9854 2.3758C16.0995 0.890935 13.7196 0.00512695 11.133 0.00512695C5.00963 0.00512695 0.0458984 4.96916 0.0458984 11.0931C0.0458984 17.2168 5.00963 22.1811 11.133 22.1811C13.7196 22.1811 16.0995 21.2953 17.9854 19.8105C15.4065 17.7801 13.7504 14.6302 13.7504 11.0931Z" fill="#FF3A29"/>
<path fill-rule="evenodd" clip-rule="evenodd" d="M35.5786 17.964V17.5334H35.4662L35.3371 17.8294L35.2078 17.5334H35.0954V17.964H35.1748V17.6394L35.2959 17.919H35.3781L35.4995 17.6384V17.964H35.5786ZM34.8671 17.964V17.607H35.011V17.534H34.6445V17.607H34.7883V17.964H34.8671ZM35.9248 11.0931C35.9248 17.2168 30.9611 22.1811 24.8377 22.1811C22.2512 22.1811 19.8715 21.2953 17.9854 19.8105C20.5642 17.7801 22.2204 14.6302 22.2204 11.0931C22.2204 7.55606 20.5642 4.40583 17.9854 2.3758C19.8715 0.890935 22.2512 0.00512695 24.8377 0.00512695C30.9611 0.00512695 35.9248 4.96916 35.9248 11.0931Z" fill="#FFB200"/>
<path fill-rule="evenodd" clip-rule="evenodd" d="M58.0695 11.141C58.0695 9.84523 58.9181 8.78109 60.3065 8.78109C61.6331 8.78109 62.5278 9.79903 62.5278 11.141C62.5278 12.4832 61.6331 13.5015 60.3065 13.5015C58.9181 13.5015 58.0695 12.437 58.0695 11.141ZM64.0398 11.141V7.45422H62.4354V8.34896C61.9263 7.68553 61.1551 7.26912 60.1057 7.26912C58.0387 7.26912 56.4189 8.88889 56.4189 11.141C56.4189 13.3934 58.0387 15.0135 60.1057 15.0135C61.1551 15.0135 61.9263 14.5967 62.4354 13.9333V14.8281H64.0398V11.141ZM118.219 11.141C118.219 9.84523 119.067 8.78109 120.455 8.78109C121.782 8.78109 122.677 9.79903 122.677 11.141C122.677 12.4832 121.782 13.5015 120.455 13.5015C119.067 13.5015 118.219 12.437 118.219 11.141ZM125.984 14.4782V14.594H126.09C126.114 14.594 126.134 14.589 126.149 14.5795C126.163 14.5699 126.17 14.5552 126.17 14.5355C126.17 14.5164 126.163 14.5019 126.149 14.4923C126.134 14.4828 126.114 14.4782 126.09 14.4782H125.984ZM126.091 14.3965C126.147 14.3965 126.19 14.4089 126.22 14.4338C126.251 14.4588 126.266 14.4926 126.266 14.5355C126.266 14.5712 126.254 14.6011 126.229 14.6242C126.205 14.6476 126.171 14.662 126.127 14.6673L126.269 14.8311H126.158L126.026 14.6685H125.984V14.8311H125.891V14.3965H126.091ZM126.064 14.9805C126.114 14.9805 126.161 14.971 126.205 14.9519C126.248 14.9325 126.287 14.9066 126.32 14.8736C126.353 14.841 126.378 14.8022 126.397 14.7578C126.416 14.7135 126.425 14.666 126.425 14.6155C126.425 14.5653 126.416 14.5179 126.397 14.4735C126.378 14.4292 126.353 14.3904 126.32 14.3574C126.287 14.3248 126.248 14.2989 126.205 14.2801C126.161 14.2613 126.114 14.2521 126.064 14.2521C126.012 14.2521 125.964 14.2613 125.92 14.2801C125.875 14.2989 125.836 14.3248 125.803 14.3574C125.77 14.3904 125.745 14.4292 125.726 14.4735C125.707 14.5179 125.698 14.5653 125.698 14.6155C125.698 14.666 125.707 14.7135 125.726 14.7578C125.745 14.8022 125.77 14.841 125.803 14.8736C125.836 14.9066 125.875 14.9325 125.92 14.9519C125.964 14.971 126.012 14.9805 126.064 14.9805ZM126.064 14.1477C126.13 14.1477 126.191 14.16 126.249 14.1843C126.307 14.209 126.357 14.2422 126.4 14.2847C126.443 14.3272 126.478 14.3768 126.503 14.4338C126.527 14.4908 126.54 14.5515 126.54 14.6155C126.54 14.6799 126.527 14.7403 126.503 14.7969C126.478 14.8533 126.443 14.9029 126.4 14.9454C126.357 14.9879 126.307 15.0215 126.249 15.0464C126.191 15.0714 126.13 15.0837 126.064 15.0837C125.996 15.0837 125.934 15.0714 125.875 15.0464C125.817 15.0215 125.766 14.9879 125.723 14.9454C125.68 14.9029 125.646 14.8533 125.622 14.7969C125.597 14.7403 125.584 14.6799 125.584 14.6155C125.584 14.5515 125.597 14.4908 125.622 14.4338C125.646 14.3768 125.68 14.3272 125.723 14.2847C125.766 14.2422 125.817 14.209 125.875 14.1843C125.934 14.16 125.996 14.1477 126.064 14.1477ZM124.189 11.141V4.49219H122.584V8.34896C122.075 7.68553 121.304 7.26912 120.255 7.26912C118.188 7.26912 116.568 8.88889 116.568 11.141C116.568 13.3934 118.188 15.0135 120.255 15.0135C121.304 15.0135 122.075 14.5967 122.584 13.9333V14.8281H124.189V11.141ZM83.9403 8.70378C84.9739 8.70378 85.6371 9.3515 85.8068 10.4933H81.9811C82.1508 9.42881 82.7985 8.70378 83.9403 8.70378ZM83.9711 7.26912C81.8114 7.26912 80.2997 8.84238 80.2997 11.141C80.2997 13.4861 81.873 15.0135 84.0792 15.0135C85.1898 15.0135 86.2081 14.7357 87.1028 13.9798L86.3159 12.7919C85.699 13.2853 84.912 13.5631 84.1716 13.5631C83.1379 13.5631 82.197 13.0851 81.9657 11.7582H87.4422C87.4576 11.5577 87.473 11.3572 87.473 11.141C87.4576 8.84238 86.0384 7.26912 83.9711 7.26912ZM103.332 11.141C103.332 9.84523 104.18 8.78109 105.569 8.78109C106.895 8.78109 107.79 9.79903 107.79 11.141C107.79 12.4832 106.895 13.5015 105.569 13.5015C104.18 13.5015 103.332 12.437 103.332 11.141ZM109.302 11.141V7.45422H107.698V8.34896C107.188 7.68553 106.417 7.26912 105.368 7.26912C103.301 7.26912 101.681 8.88889 101.681 11.141C101.681 13.3934 103.301 15.0135 105.368 15.0135C106.417 15.0135 107.188 14.5967 107.698 13.9333V14.8281H109.302V11.141ZM94.2761 11.141C94.2761 13.378 95.8343 15.0135 98.2102 15.0135C99.3209 15.0135 100.061 14.7665 100.863 14.1338L100.092 12.8381C99.4906 13.2702 98.858 13.5015 98.1637 13.5015C96.8834 13.4861 95.9424 12.5602 95.9424 11.141C95.9424 9.72203 96.8834 8.79618 98.1637 8.78109C98.858 8.78109 99.4906 9.01209 100.092 9.44421L100.863 8.14846C100.061 7.51582 99.3209 7.26912 98.2102 7.26912C95.8343 7.26912 94.2761 8.90429 94.2761 11.141ZM114.948 7.26912C114.022 7.26912 113.421 7.70093 113.004 8.34896V7.45422H111.415V14.8281H113.019V10.6938C113.019 9.47501 113.544 8.79618 114.593 8.79618C114.917 8.79618 115.257 8.84238 115.596 8.98129L116.09 7.46962C115.735 7.33072 115.272 7.26912 114.948 7.26912ZM71.9692 8.04035C71.1977 7.53122 70.1333 7.26912 68.961 7.26912C67.0942 7.26912 65.8909 8.16386 65.8909 9.62932C65.8909 10.8327 66.7856 11.5731 68.4362 11.8044L69.1923 11.9125C70.0717 12.0357 70.4881 12.2673 70.4881 12.6838C70.4881 13.2548 69.902 13.5785 68.8067 13.5785C67.6957 13.5785 66.8937 13.2237 66.3538 12.8073L65.598 14.0568C66.477 14.7049 67.5879 15.0135 68.791 15.0135C70.9199 15.0135 72.154 14.0103 72.154 12.6068C72.154 11.3107 71.1823 10.6322 69.5779 10.4006L68.8221 10.2928C68.1279 10.2 67.5725 10.0614 67.5725 9.56772C67.5725 9.0278 68.0968 8.70378 68.9764 8.70378C69.9174 8.70378 70.8275 9.0586 71.275 9.33641L71.9692 8.04035ZM92.6564 7.26912C91.7308 7.26912 91.129 7.70093 90.7126 8.34896V7.45422H89.1236V14.8281H90.728V10.6938C90.728 9.47501 91.2525 8.79618 92.3016 8.79618C92.6256 8.79618 92.965 8.84238 93.3044 8.98129L93.7978 7.46962C93.443 7.33072 92.9804 7.26912 92.6564 7.26912ZM78.9729 7.45422H76.3502V5.21722H74.7305V7.45422H73.2339V8.91969H74.7305V12.2827C74.7305 13.9952 75.3939 15.0135 77.2912 15.0135C77.9854 15.0135 78.7878 14.7973 79.2966 14.4424L78.834 13.0694C78.3556 13.3472 77.8311 13.4861 77.4147 13.4861C76.6123 13.4861 76.3502 12.9924 76.3502 12.2519V8.91969H78.9729V7.45422ZM54.9997 14.8281V10.2C54.9997 8.45676 53.889 7.28452 52.0996 7.26912C51.1586 7.25372 50.1866 7.54662 49.5077 8.58027C48.9986 7.76284 48.1963 7.26912 47.0702 7.26912C46.2836 7.26912 45.5124 7.50042 44.9105 8.36436V7.45422H43.3062V14.8281H44.9259V10.74C44.9259 9.45961 45.6356 8.78109 46.7308 8.78109C47.7953 8.78109 48.3355 9.47501 48.3355 10.7246V14.8281H49.9553V10.74C49.9553 9.45961 50.6957 8.78109 51.7601 8.78109C52.8554 8.78109 53.3799 9.47501 53.3799 10.7246V14.8281H54.9997Z" fill="white"/>
</svg>
