<svg width="24" height="24" viewBox="0 0 24 24" fill="none" xmlns="http://www.w3.org/2000/svg">
<path fill-rule="evenodd" clip-rule="evenodd" d="M20 11.9996C20 15.6476 18.605 19.1006 16.071 21.7246C15.688 22.1216 15.054 22.1326 14.657 21.7496C14.454 21.5536 14.352 21.2916 14.352 21.0306C14.352 20.7806 14.445 20.5296 14.633 20.3356C16.804 18.0856 18 15.1256 18 11.9996C18 8.87363 16.804 5.91363 14.633 3.66363C14.248 3.26863 14.259 2.63463 14.657 2.24963C15.054 1.86763 15.688 1.87763 16.071 2.27563C18.605 4.89963 20 8.35263 20 11.9996ZM15.0002 12C15.0002 9.57203 13.9992 7.21203 12.2522 5.52503C11.8542 5.14303 11.2212 5.15303 10.8382 5.55103C10.4542 5.94703 10.4652 6.58203 10.8622 6.96503C12.2212 8.27603 13.0002 10.111 13.0002 12C13.0002 13.889 12.2212 15.724 10.8622 17.035C10.6592 17.231 10.5572 17.493 10.5572 17.755C10.5572 18.005 10.6502 18.256 10.8382 18.449C11.2212 18.847 11.8542 18.857 12.2522 18.475C13.9992 16.788 15.0002 14.428 15.0002 12ZM8.5972 8.52703C9.5012 9.46403 10.0002 10.697 10.0002 12C10.0002 13.303 9.5012 14.536 8.5972 15.473C8.2132 15.87 7.5802 15.881 7.1832 15.498C6.9792 15.302 6.8772 15.04 6.8772 14.778C6.8772 14.528 6.9712 14.277 7.1582 14.084C8.2442 12.959 8.2442 11.041 7.1582 9.91603C6.7742 9.52103 6.7852 8.88703 7.1832 8.50203C7.5802 8.11903 8.2132 8.13003 8.5972 8.52703ZM5.0002 11C5.5522 11 6.0002 11.447 6.0002 12C6.0002 12.553 5.5522 13 5.0002 13C4.4482 13 4.0002 12.553 4.0002 12C4.0002 11.447 4.4482 11 5.0002 11Z" fill="white"/>
</svg>
