<svg width="448" height="260" viewBox="0 0 448 260" fill="none" xmlns="http://www.w3.org/2000/svg">
<rect width="448" height="260" rx="10" fill="#FF3A29"/>
<path fill-rule="evenodd" clip-rule="evenodd" d="M304.134 225.81H313.836V208.376H304.134V225.81Z" fill="#FF3A29"/>
<path fill-rule="evenodd" clip-rule="evenodd" d="M304.75 217.093C304.75 213.556 306.406 210.406 308.985 208.376C307.099 206.891 304.72 206.005 302.133 206.005C296.01 206.005 291.046 210.969 291.046 217.093C291.046 223.217 296.01 228.181 302.133 228.181C304.72 228.181 307.099 227.295 308.985 225.81C306.406 223.78 304.75 220.63 304.75 217.093Z" fill="#FF3A29"/>
<path fill-rule="evenodd" clip-rule="evenodd" d="M326.579 223.964V223.533H326.466L326.337 223.829L326.208 223.533H326.095V223.964H326.175V223.639L326.296 223.919H326.378L326.499 223.638V223.964H326.579ZM325.867 223.964V223.607H326.011V223.534H325.644V223.607H325.788V223.964H325.867ZM326.925 217.093C326.925 223.217 321.961 228.181 315.838 228.181C313.251 228.181 310.872 227.295 308.985 225.81C311.564 223.78 313.22 220.63 313.22 217.093C313.22 213.556 311.564 210.406 308.985 208.376C310.872 206.891 313.251 206.005 315.838 206.005C321.961 206.005 326.925 210.969 326.925 217.093Z" fill="#FFB200"/>
<path fill-rule="evenodd" clip-rule="evenodd" d="M349.07 217.141C349.07 215.845 349.918 214.781 351.307 214.781C352.633 214.781 353.528 215.799 353.528 217.141C353.528 218.483 352.633 219.501 351.307 219.501C349.918 219.501 349.07 218.437 349.07 217.141ZM355.04 217.141V213.454H353.435V214.349C352.926 213.686 352.155 213.269 351.106 213.269C349.039 213.269 347.419 214.889 347.419 217.141C347.419 219.393 349.039 221.013 351.106 221.013C352.155 221.013 352.926 220.597 353.435 219.933V220.828H355.04V217.141ZM409.219 217.141C409.219 215.845 410.067 214.781 411.455 214.781C412.782 214.781 413.677 215.799 413.677 217.141C413.677 218.483 412.782 219.501 411.455 219.501C410.067 219.501 409.219 218.437 409.219 217.141ZM416.984 220.478V220.594H417.09C417.114 220.594 417.134 220.589 417.149 220.579C417.163 220.57 417.17 220.555 417.17 220.535C417.17 220.516 417.163 220.502 417.149 220.492C417.134 220.483 417.114 220.478 417.09 220.478H416.984ZM417.091 220.397C417.147 220.397 417.19 220.409 417.22 220.434C417.251 220.459 417.266 220.493 417.266 220.535C417.266 220.571 417.254 220.601 417.229 220.624C417.205 220.648 417.171 220.662 417.127 220.667L417.269 220.831H417.158L417.026 220.669H416.984V220.831H416.891V220.397H417.091ZM417.064 220.981C417.114 220.981 417.161 220.971 417.205 220.952C417.248 220.932 417.287 220.907 417.32 220.874C417.353 220.841 417.378 220.802 417.397 220.758C417.416 220.713 417.425 220.666 417.425 220.616C417.425 220.565 417.416 220.518 417.397 220.474C417.378 220.429 417.353 220.39 417.32 220.357C417.287 220.325 417.248 220.299 417.205 220.28C417.161 220.261 417.114 220.252 417.064 220.252C417.012 220.252 416.964 220.261 416.92 220.28C416.875 220.299 416.836 220.325 416.803 220.357C416.77 220.39 416.745 220.429 416.726 220.474C416.707 220.518 416.698 220.565 416.698 220.616C416.698 220.666 416.707 220.713 416.726 220.758C416.745 220.802 416.77 220.841 416.803 220.874C416.836 220.907 416.875 220.932 416.92 220.952C416.964 220.971 417.012 220.981 417.064 220.981ZM417.064 220.148C417.13 220.148 417.191 220.16 417.249 220.184C417.307 220.209 417.357 220.242 417.4 220.285C417.443 220.327 417.478 220.377 417.503 220.434C417.527 220.491 417.54 220.551 417.54 220.616C417.54 220.68 417.527 220.74 417.503 220.797C417.478 220.853 417.443 220.903 417.4 220.945C417.357 220.988 417.307 221.021 417.249 221.046C417.191 221.071 417.13 221.084 417.064 221.084C416.996 221.084 416.934 221.071 416.875 221.046C416.817 221.021 416.766 220.988 416.723 220.945C416.68 220.903 416.646 220.853 416.622 220.797C416.597 220.74 416.584 220.68 416.584 220.616C416.584 220.551 416.597 220.491 416.622 220.434C416.646 220.377 416.68 220.327 416.723 220.285C416.766 220.242 416.817 220.209 416.875 220.184C416.934 220.16 416.996 220.148 417.064 220.148ZM415.189 217.141V210.492H413.584V214.349C413.075 213.686 412.304 213.269 411.255 213.269C409.188 213.269 407.568 214.889 407.568 217.141C407.568 219.393 409.188 221.013 411.255 221.013C412.304 221.013 413.075 220.597 413.584 219.933V220.828H415.189V217.141ZM374.94 214.704C375.974 214.704 376.637 215.352 376.807 216.493H372.981C373.151 215.429 373.799 214.704 374.94 214.704ZM374.971 213.269C372.811 213.269 371.3 214.842 371.3 217.141C371.3 219.486 372.873 221.013 375.079 221.013C376.19 221.013 377.208 220.736 378.103 219.98L377.316 218.792C376.699 219.285 375.912 219.563 375.172 219.563C374.138 219.563 373.197 219.085 372.966 217.758H378.442C378.458 217.558 378.473 217.357 378.473 217.141C378.458 214.842 377.038 213.269 374.971 213.269ZM394.332 217.141C394.332 215.845 395.18 214.781 396.569 214.781C397.895 214.781 398.79 215.799 398.79 217.141C398.79 218.483 397.895 219.501 396.569 219.501C395.18 219.501 394.332 218.437 394.332 217.141ZM400.302 217.141V213.454H398.698V214.349C398.188 213.686 397.417 213.269 396.368 213.269C394.301 213.269 392.681 214.889 392.681 217.141C392.681 219.393 394.301 221.013 396.368 221.013C397.417 221.013 398.188 220.597 398.698 219.933V220.828H400.302V217.141ZM385.276 217.141C385.276 219.378 386.834 221.013 389.21 221.013C390.321 221.013 391.061 220.766 391.863 220.134L391.092 218.838C390.491 219.27 389.858 219.501 389.164 219.501C387.883 219.486 386.942 218.56 386.942 217.141C386.942 215.722 387.883 214.796 389.164 214.781C389.858 214.781 390.491 215.012 391.092 215.444L391.863 214.148C391.061 213.516 390.321 213.269 389.21 213.269C386.834 213.269 385.276 214.904 385.276 217.141ZM405.948 213.269C405.022 213.269 404.421 213.701 404.004 214.349V213.454H402.415V220.828H404.019V216.694C404.019 215.475 404.544 214.796 405.593 214.796C405.917 214.796 406.257 214.842 406.596 214.981L407.09 213.47C406.735 213.331 406.272 213.269 405.948 213.269ZM362.969 214.04C362.198 213.531 361.133 213.269 359.961 213.269C358.094 213.269 356.891 214.164 356.891 215.629C356.891 216.833 357.786 217.573 359.436 217.804L360.192 217.913C361.072 218.036 361.488 218.267 361.488 218.684C361.488 219.255 360.902 219.578 359.807 219.578C358.696 219.578 357.894 219.224 357.354 218.807L356.598 220.057C357.477 220.705 358.588 221.013 359.791 221.013C361.92 221.013 363.154 220.01 363.154 218.607C363.154 217.311 362.182 216.632 360.578 216.401L359.822 216.293C359.128 216.2 358.573 216.061 358.573 215.568C358.573 215.028 359.097 214.704 359.976 214.704C360.917 214.704 361.827 215.059 362.275 215.336L362.969 214.04ZM383.656 213.269C382.731 213.269 382.129 213.701 381.713 214.349V213.454H380.124V220.828H381.728V216.694C381.728 215.475 382.253 214.796 383.302 214.796C383.626 214.796 383.965 214.842 384.304 214.981L384.798 213.47C384.443 213.331 383.98 213.269 383.656 213.269ZM369.973 213.454H367.35V211.217H365.73V213.454H364.234V214.92H365.73V218.283C365.73 219.995 366.394 221.013 368.291 221.013C368.985 221.013 369.788 220.797 370.297 220.442L369.834 219.069C369.356 219.347 368.831 219.486 368.415 219.486C367.612 219.486 367.35 218.992 367.35 218.252V214.92H369.973V213.454ZM346 220.828V216.2C346 214.457 344.889 213.285 343.1 213.269C342.159 213.254 341.187 213.547 340.508 214.58C339.999 213.763 339.196 213.269 338.07 213.269C337.284 213.269 336.512 213.5 335.911 214.364V213.454H334.306V220.828H335.926V216.74C335.926 215.46 336.636 214.781 337.731 214.781C338.795 214.781 339.335 215.475 339.335 216.725V220.828H340.955V216.74C340.955 215.46 341.696 214.781 342.76 214.781C343.855 214.781 344.38 215.475 344.38 216.725V220.828H346Z" fill="white"/>
<path d="M32.86 224V211.88L30.6 212.38V211.22L33.42 210H34.56V224H32.86ZM37.2952 224V222.82C38.2418 222.073 39.1352 221.32 39.9752 220.56C40.8285 219.787 41.5818 219.027 42.2352 218.28C42.9018 217.533 43.4218 216.8 43.7952 216.08C44.1818 215.36 44.3752 214.667 44.3752 214C44.3752 213.507 44.2885 213.047 44.1152 212.62C43.9552 212.193 43.6885 211.853 43.3152 211.6C42.9418 211.333 42.4352 211.2 41.7952 211.2C41.1818 211.2 40.6685 211.34 40.2552 211.62C39.8418 211.887 39.5285 212.247 39.3152 212.7C39.1152 213.153 39.0152 213.64 39.0152 214.16H37.3952C37.3952 213.24 37.5885 212.453 37.9752 211.8C38.3618 211.133 38.8885 210.627 39.5552 210.28C40.2218 209.933 40.9752 209.76 41.8152 209.76C43.0552 209.76 44.0685 210.113 44.8552 210.82C45.6552 211.513 46.0552 212.553 46.0552 213.94C46.0552 214.767 45.8485 215.587 45.4352 216.4C45.0218 217.2 44.4952 217.98 43.8552 218.74C43.2152 219.487 42.5285 220.187 41.7952 220.84C41.0752 221.493 40.4018 222.08 39.7752 222.6H46.5352V224H37.2952ZM53.3334 225.9L58.3534 208.72H60.0134L54.9934 225.9H53.3334ZM67.1389 224V222.82C68.0856 222.073 68.9789 221.32 69.8189 220.56C70.6722 219.787 71.4256 219.027 72.0789 218.28C72.7456 217.533 73.2656 216.8 73.6389 216.08C74.0256 215.36 74.2189 214.667 74.2189 214C74.2189 213.507 74.1322 213.047 73.9589 212.62C73.7989 212.193 73.5322 211.853 73.1589 211.6C72.7856 211.333 72.2789 211.2 71.6389 211.2C71.0256 211.2 70.5122 211.34 70.0989 211.62C69.6856 211.887 69.3722 212.247 69.1589 212.7C68.9589 213.153 68.8589 213.64 68.8589 214.16H67.2389C67.2389 213.24 67.4322 212.453 67.8189 211.8C68.2056 211.133 68.7322 210.627 69.3989 210.28C70.0656 209.933 70.8189 209.76 71.6589 209.76C72.8989 209.76 73.9122 210.113 74.6989 210.82C75.4989 211.513 75.8989 212.553 75.8989 213.94C75.8989 214.767 75.6922 215.587 75.2789 216.4C74.8656 217.2 74.3389 217.98 73.6989 218.74C73.0589 219.487 72.3722 220.187 71.6389 220.84C70.9189 221.493 70.2456 222.08 69.6189 222.6H76.3789V224H67.1389ZM84.0689 224.24C82.8289 224.24 81.7556 223.94 80.8489 223.34C79.9556 222.727 79.2689 221.88 78.7889 220.8C78.3089 219.707 78.0689 218.44 78.0689 217C78.0689 215.56 78.3089 214.3 78.7889 213.22C79.2689 212.127 79.9556 211.28 80.8489 210.68C81.7556 210.067 82.8289 209.76 84.0689 209.76C85.3089 209.76 86.3756 210.067 87.2689 210.68C88.1622 211.28 88.8489 212.127 89.3289 213.22C89.8089 214.3 90.0489 215.56 90.0489 217C90.0489 218.44 89.8089 219.707 89.3289 220.8C88.8489 221.88 88.1622 222.727 87.2689 223.34C86.3756 223.94 85.3089 224.24 84.0689 224.24ZM84.0689 222.76C84.8822 222.76 85.6089 222.533 86.2489 222.08C86.9022 221.613 87.4089 220.953 87.7689 220.1C88.1422 219.233 88.3289 218.2 88.3289 217C88.3289 215.8 88.1422 214.773 87.7689 213.92C87.4089 213.067 86.9022 212.413 86.2489 211.96C85.6089 211.493 84.8822 211.26 84.0689 211.26C83.2422 211.26 82.5089 211.493 81.8689 211.96C81.2289 212.413 80.7222 213.067 80.3489 213.92C79.9756 214.773 79.7889 215.8 79.7889 217C79.7889 218.2 79.9756 219.233 80.3489 220.1C80.7222 220.953 81.2289 221.613 81.8689 222.08C82.5089 222.533 83.2422 222.76 84.0689 222.76Z" fill="white"/>
<path d="M36.49 167.264C35.4927 167.264 34.5833 167.088 33.762 166.736C32.9553 166.369 32.31 165.819 31.826 165.086C31.342 164.353 31.0853 163.436 31.056 162.336H33.366C33.3953 163.157 33.674 163.854 34.202 164.426C34.7447 164.983 35.5073 165.262 36.49 165.262C37.4287 165.262 38.1473 165.005 38.646 164.492C39.1447 163.964 39.394 163.311 39.394 162.534C39.394 161.595 39.0567 160.899 38.382 160.444C37.722 159.989 36.908 159.762 35.94 159.762H34.796V157.826H35.962C36.8273 157.826 37.524 157.621 38.052 157.21C38.5947 156.799 38.866 156.22 38.866 155.472C38.866 154.841 38.6533 154.328 38.228 153.932C37.8173 153.536 37.2307 153.338 36.468 153.338C35.676 153.338 35.0527 153.573 34.598 154.042C34.1433 154.497 33.894 155.069 33.85 155.758H31.54C31.5693 154.863 31.7893 154.086 32.2 153.426C32.6253 152.766 33.2047 152.253 33.938 151.886C34.6713 151.519 35.5147 151.336 36.468 151.336C37.4947 151.336 38.3527 151.519 39.042 151.886C39.746 152.238 40.274 152.722 40.626 153.338C40.9927 153.939 41.176 154.599 41.176 155.318C41.176 156.139 40.9487 156.858 40.494 157.474C40.0393 158.09 39.4307 158.501 38.668 158.706C39.548 158.897 40.274 159.329 40.846 160.004C41.418 160.664 41.704 161.522 41.704 162.578C41.704 163.429 41.506 164.213 41.11 164.932C40.714 165.636 40.1273 166.201 39.35 166.626C38.5727 167.051 37.6193 167.264 36.49 167.264ZM51.5995 167V163.92H43.8775V162.072L51.2255 151.6H53.9095V161.896H56.0655V163.92H53.9095V167H51.5995ZM46.4075 161.896H51.7315V154.174L46.4075 161.896ZM63.9426 167.264C62.8132 167.264 61.8599 167.051 61.0826 166.626C60.3052 166.201 59.6746 165.636 59.1906 164.932C58.7212 164.228 58.3839 163.436 58.1786 162.556C57.9732 161.676 57.8706 160.774 57.8706 159.85C57.8706 158.149 58.1052 156.66 58.5746 155.384C59.0586 154.108 59.7479 153.118 60.6426 152.414C61.5372 151.695 62.6226 151.336 63.8986 151.336C64.9106 151.336 65.7759 151.534 66.4946 151.93C67.2132 152.326 67.7706 152.854 68.1666 153.514C68.5772 154.174 68.8266 154.893 68.9146 155.67H66.7366C66.6046 154.907 66.2892 154.321 65.7906 153.91C65.2919 153.499 64.6539 153.294 63.8766 153.294C62.8059 153.294 61.9186 153.8 61.2146 154.812C60.5252 155.809 60.1586 157.349 60.1146 159.432C60.4666 158.787 61.0092 158.237 61.7426 157.782C62.4906 157.327 63.3486 157.1 64.3166 157.1C65.1819 157.1 65.9886 157.305 66.7366 157.716C67.4992 158.127 68.1152 158.706 68.5846 159.454C69.0686 160.187 69.3106 161.06 69.3106 162.072C69.3106 162.967 69.0906 163.81 68.6506 164.602C68.2106 165.394 67.5872 166.039 66.7806 166.538C65.9886 167.022 65.0426 167.264 63.9426 167.264ZM63.8106 165.24C64.4266 165.24 64.9766 165.108 65.4606 164.844C65.9446 164.58 66.3259 164.221 66.6046 163.766C66.8832 163.297 67.0226 162.769 67.0226 162.182C67.0226 161.243 66.7146 160.495 66.0986 159.938C65.4972 159.381 64.7272 159.102 63.7886 159.102C63.1726 159.102 62.6152 159.241 62.1166 159.52C61.6326 159.799 61.2512 160.173 60.9726 160.642C60.6939 161.097 60.5546 161.603 60.5546 162.16C60.5546 162.761 60.6939 163.297 60.9726 163.766C61.2659 164.221 61.6546 164.58 62.1386 164.844C62.6372 165.108 63.1946 165.24 63.8106 165.24ZM78.349 167.264C76.9556 167.264 75.753 166.934 74.741 166.274C73.7436 165.599 72.9736 164.668 72.431 163.48C71.903 162.277 71.639 160.884 71.639 159.3C71.639 157.716 71.903 156.33 72.431 155.142C72.9736 153.939 73.7436 153.008 74.741 152.348C75.753 151.673 76.9556 151.336 78.349 151.336C79.7423 151.336 80.9376 151.673 81.935 152.348C82.9323 153.008 83.695 153.939 84.223 155.142C84.7656 156.33 85.037 157.716 85.037 159.3C85.037 160.884 84.7656 162.277 84.223 163.48C83.695 164.668 82.9323 165.599 81.935 166.274C80.9376 166.934 79.7423 167.264 78.349 167.264ZM78.349 165.174C79.185 165.174 79.9256 164.939 80.571 164.47C81.231 164.001 81.7443 163.326 82.111 162.446C82.4776 161.566 82.661 160.517 82.661 159.3C82.661 158.083 82.4776 157.034 82.111 156.154C81.7443 155.274 81.231 154.599 80.571 154.13C79.9256 153.661 79.185 153.426 78.349 153.426C77.4983 153.426 76.7503 153.661 76.105 154.13C75.4596 154.599 74.9536 155.274 74.587 156.154C74.2203 157.034 74.037 158.083 74.037 159.3C74.037 160.517 74.2203 161.566 74.587 162.446C74.9536 163.326 75.4596 164.001 76.105 164.47C76.7503 164.939 77.4983 165.174 78.349 165.174ZM101.736 159.08L102.088 155.846L99.4922 157.76L98.5682 156.176L101.56 154.922L98.5902 153.712L99.4482 152.172L102.11 154.086L101.736 150.83H103.496L103.122 154.086L105.762 152.172L106.598 153.69L103.628 154.944L106.62 156.176L105.718 157.738L103.122 155.846L103.474 159.08H101.736ZM112.564 159.08L112.916 155.846L110.32 157.76L109.396 156.176L112.388 154.922L109.418 153.712L110.276 152.172L112.938 154.086L112.564 150.83H114.324L113.95 154.086L116.59 152.172L117.426 153.69L114.456 154.944L117.448 156.176L116.546 157.738L113.95 155.846L114.302 159.08H112.564ZM123.392 159.08L123.744 155.846L121.148 157.76L120.224 156.176L123.216 154.922L120.246 153.712L121.104 152.172L123.766 154.086L123.392 150.83H125.152L124.778 154.086L127.418 152.172L128.254 153.69L125.284 154.944L128.276 156.176L127.374 157.738L124.778 155.846L125.13 159.08H123.392ZM134.221 159.08L134.573 155.846L131.977 157.76L131.053 156.176L134.045 154.922L131.075 153.712L131.933 152.172L134.595 154.086L134.221 150.83H135.981L135.607 154.086L138.247 152.172L139.083 153.69L136.113 154.944L139.105 156.176L138.203 157.738L135.607 155.846L135.959 159.08H134.221ZM156.135 159.08L156.487 155.846L153.891 157.76L152.967 156.176L155.959 154.922L152.989 153.712L153.847 152.172L156.509 154.086L156.135 150.83H157.895L157.521 154.086L160.161 152.172L160.997 153.69L158.027 154.944L161.019 156.176L160.117 157.738L157.521 155.846L157.873 159.08H156.135ZM166.963 159.08L167.315 155.846L164.719 157.76L163.795 156.176L166.787 154.922L163.817 153.712L164.675 152.172L167.337 154.086L166.963 150.83H168.723L168.349 154.086L170.989 152.172L171.825 153.69L168.855 154.944L171.847 156.176L170.945 157.738L168.349 155.846L168.701 159.08H166.963ZM177.791 159.08L178.143 155.846L175.547 157.76L174.623 156.176L177.615 154.922L174.645 153.712L175.503 152.172L178.165 154.086L177.791 150.83H179.551L179.177 154.086L181.817 152.172L182.653 153.69L179.683 154.944L182.675 156.176L181.773 157.738L179.177 155.846L179.529 159.08H177.791ZM188.619 159.08L188.971 155.846L186.375 157.76L185.451 156.176L188.443 154.922L185.473 153.712L186.331 152.172L188.993 154.086L188.619 150.83H190.379L190.005 154.086L192.645 152.172L193.481 153.69L190.511 154.944L193.503 156.176L192.601 157.738L190.005 155.846L190.357 159.08H188.619ZM212.777 167.264C211.75 167.264 210.819 167.081 209.983 166.714C209.162 166.333 208.502 165.805 208.003 165.13C207.519 164.455 207.277 163.663 207.277 162.754C207.277 161.83 207.534 161.001 208.047 160.268C208.575 159.535 209.272 159.036 210.137 158.772C209.36 158.464 208.758 158.017 208.333 157.43C207.908 156.829 207.695 156.169 207.695 155.45C207.695 154.702 207.893 154.02 208.289 153.404C208.685 152.773 209.257 152.275 210.005 151.908C210.768 151.527 211.692 151.336 212.777 151.336C213.862 151.336 214.779 151.527 215.527 151.908C216.29 152.275 216.869 152.773 217.265 153.404C217.661 154.02 217.859 154.702 217.859 155.45C217.859 156.154 217.639 156.814 217.199 157.43C216.774 158.031 216.172 158.479 215.395 158.772C216.26 159.051 216.95 159.557 217.463 160.29C217.991 161.009 218.255 161.83 218.255 162.754C218.255 163.663 218.013 164.455 217.529 165.13C217.045 165.805 216.385 166.333 215.549 166.714C214.728 167.081 213.804 167.264 212.777 167.264ZM212.777 158.024C213.628 158.024 214.295 157.804 214.779 157.364C215.278 156.924 215.527 156.359 215.527 155.67C215.527 154.893 215.285 154.299 214.801 153.888C214.317 153.477 213.642 153.272 212.777 153.272C211.912 153.272 211.237 153.477 210.753 153.888C210.269 154.299 210.027 154.893 210.027 155.67C210.027 156.359 210.269 156.924 210.753 157.364C211.237 157.804 211.912 158.024 212.777 158.024ZM212.777 165.284C213.833 165.284 214.625 165.035 215.153 164.536C215.681 164.023 215.945 163.37 215.945 162.578C215.945 161.698 215.659 161.023 215.087 160.554C214.53 160.07 213.76 159.828 212.777 159.828C211.794 159.828 211.017 160.07 210.445 160.554C209.873 161.023 209.587 161.698 209.587 162.578C209.587 163.37 209.851 164.023 210.379 164.536C210.922 165.035 211.721 165.284 212.777 165.284ZM221.831 167L227.793 153.602H219.785V151.6H230.191V153.294L224.273 167H221.831ZM234.326 167V154.24L231.84 154.812V153.096L235.25 151.6H236.746V167H234.326ZM246.035 167.264C244.641 167.264 243.439 166.934 242.427 166.274C241.429 165.599 240.659 164.668 240.117 163.48C239.589 162.277 239.325 160.884 239.325 159.3C239.325 157.716 239.589 156.33 240.117 155.142C240.659 153.939 241.429 153.008 242.427 152.348C243.439 151.673 244.641 151.336 246.035 151.336C247.428 151.336 248.623 151.673 249.62 152.348C250.618 153.008 251.381 153.939 251.909 155.142C252.451 156.33 252.723 157.716 252.723 159.3C252.723 160.884 252.451 162.277 251.909 163.48C251.381 164.668 250.618 165.599 249.62 166.274C248.623 166.934 247.428 167.264 246.035 167.264ZM246.035 165.174C246.871 165.174 247.611 164.939 248.257 164.47C248.917 164.001 249.43 163.326 249.797 162.446C250.163 161.566 250.347 160.517 250.347 159.3C250.347 158.083 250.163 157.034 249.797 156.154C249.43 155.274 248.917 154.599 248.257 154.13C247.611 153.661 246.871 153.426 246.035 153.426C245.184 153.426 244.436 153.661 243.791 154.13C243.145 154.599 242.639 155.274 242.273 156.154C241.906 157.034 241.723 158.083 241.723 159.3C241.723 160.517 241.906 161.566 242.273 162.446C242.639 163.326 243.145 164.001 243.791 164.47C244.436 164.939 245.184 165.174 246.035 165.174Z" fill="white"/>
<path d="M31.036 130V120.2H34.48C35.1707 120.2 35.74 120.312 36.188 120.536C36.6453 120.751 36.986 121.049 37.21 121.432C37.434 121.805 37.546 122.225 37.546 122.692C37.546 123.327 37.3733 123.826 37.028 124.19C36.692 124.554 36.286 124.806 35.81 124.946C36.174 125.011 36.5053 125.156 36.804 125.38C37.1027 125.604 37.336 125.884 37.504 126.22C37.6813 126.556 37.77 126.925 37.77 127.326C37.77 127.821 37.6487 128.273 37.406 128.684C37.1633 129.085 36.804 129.407 36.328 129.65C35.852 129.883 35.2733 130 34.592 130H31.036ZM32.212 124.484H34.396C35.0213 124.484 35.502 124.339 35.838 124.05C36.174 123.751 36.342 123.341 36.342 122.818C36.342 122.323 36.174 121.927 35.838 121.628C35.5113 121.329 35.0167 121.18 34.354 121.18H32.212V124.484ZM32.212 129.02H34.466C35.138 129.02 35.656 128.866 36.02 128.558C36.384 128.241 36.566 127.802 36.566 127.242C36.566 126.691 36.3747 126.253 35.992 125.926C35.6093 125.59 35.0913 125.422 34.438 125.422H32.212V129.02ZM39.3879 130V123.056H40.4519L40.5499 124.386C40.7645 123.929 41.0912 123.565 41.5299 123.294C41.9685 123.023 42.5099 122.888 43.1539 122.888V124.12H42.8319C42.4212 124.12 42.0432 124.195 41.6979 124.344C41.3525 124.484 41.0772 124.727 40.8719 125.072C40.6665 125.417 40.5639 125.893 40.5639 126.5V130H39.3879ZM45.1878 121.516C44.9545 121.516 44.7585 121.441 44.5998 121.292C44.4505 121.133 44.3758 120.937 44.3758 120.704C44.3758 120.48 44.4505 120.293 44.5998 120.144C44.7585 119.995 44.9545 119.92 45.1878 119.92C45.4118 119.92 45.6031 119.995 45.7618 120.144C45.9205 120.293 45.9998 120.48 45.9998 120.704C45.9998 120.937 45.9205 121.133 45.7618 121.292C45.6031 121.441 45.4118 121.516 45.1878 121.516ZM44.5998 130V123.056H45.7758V130H44.5998ZM48.5934 121.516C48.3694 121.516 48.1781 121.441 48.0194 121.292C47.8608 121.133 47.7814 120.937 47.7814 120.704C47.7814 120.48 47.8608 120.293 48.0194 120.144C48.1781 119.995 48.3694 119.92 48.5934 119.92C48.8174 119.92 49.0041 119.995 49.1534 120.144C49.3121 120.293 49.3914 120.48 49.3914 120.704C49.3914 120.937 49.3121 121.133 49.1534 121.292C49.0041 121.441 48.8174 121.516 48.5934 121.516ZM46.4654 133.08V132.072H47.0114C47.3568 132.072 47.6041 131.997 47.7534 131.848C47.9121 131.708 47.9914 131.465 47.9914 131.12V123.056H49.1674V131.148C49.1674 131.82 48.9994 132.31 48.6634 132.618C48.3274 132.926 47.8374 133.08 47.1934 133.08H46.4654ZM53.524 130.168C52.9454 130.168 52.4647 130.07 52.082 129.874C51.6994 129.678 51.4147 129.417 51.228 129.09C51.0414 128.763 50.948 128.409 50.948 128.026C50.948 127.317 51.2187 126.771 51.76 126.388C52.3014 126.005 53.0387 125.814 53.972 125.814H55.848V125.73C55.848 125.123 55.6894 124.666 55.372 124.358C55.0547 124.041 54.63 123.882 54.098 123.882C53.6407 123.882 53.244 123.999 52.908 124.232C52.5814 124.456 52.376 124.787 52.292 125.226H51.088C51.1347 124.722 51.3027 124.297 51.592 123.952C51.8907 123.607 52.2594 123.345 52.698 123.168C53.1367 122.981 53.6034 122.888 54.098 122.888C55.0687 122.888 55.7967 123.149 56.282 123.672C56.7767 124.185 57.024 124.871 57.024 125.73V130H55.974L55.904 128.754C55.708 129.146 55.4187 129.482 55.036 129.762C54.6627 130.033 54.1587 130.168 53.524 130.168ZM53.706 129.174C54.154 129.174 54.5367 129.057 54.854 128.824C55.1807 128.591 55.428 128.287 55.596 127.914C55.764 127.541 55.848 127.149 55.848 126.738V126.724H54.07C53.3794 126.724 52.8894 126.845 52.6 127.088C52.32 127.321 52.18 127.615 52.18 127.97C52.18 128.334 52.3107 128.628 52.572 128.852C52.8427 129.067 53.2207 129.174 53.706 129.174ZM58.7883 130V123.056H59.8523L59.9363 124.064C60.1603 123.691 60.4589 123.401 60.8323 123.196C61.2056 122.991 61.6256 122.888 62.0923 122.888C62.6429 122.888 63.1143 123 63.5063 123.224C63.9076 123.448 64.2156 123.789 64.4303 124.246C64.6729 123.826 65.0043 123.495 65.4243 123.252C65.8536 123.009 66.3156 122.888 66.8103 122.888C67.6409 122.888 68.3036 123.14 68.7983 123.644C69.2929 124.139 69.5403 124.904 69.5403 125.94V130H68.3783V126.066C68.3783 125.347 68.2336 124.806 67.9443 124.442C67.6549 124.078 67.2396 123.896 66.6983 123.896C66.1383 123.896 65.6716 124.115 65.2983 124.554C64.9343 124.983 64.7523 125.599 64.7523 126.402V130H63.5763V126.066C63.5763 125.347 63.4316 124.806 63.1423 124.442C62.8529 124.078 62.4376 123.896 61.8963 123.896C61.3456 123.896 60.8836 124.115 60.5103 124.554C60.1463 124.983 59.9643 125.599 59.9643 126.402V130H58.7883ZM74.4757 130.168C73.8224 130.168 73.2344 130.019 72.7117 129.72C72.189 129.421 71.7737 129.001 71.4657 128.46C71.167 127.909 71.0177 127.265 71.0177 126.528C71.0177 125.791 71.1717 125.151 71.4797 124.61C71.7877 124.059 72.203 123.635 72.7257 123.336C73.2577 123.037 73.8504 122.888 74.5037 122.888C75.157 122.888 75.745 123.037 76.2677 123.336C76.7904 123.635 77.201 124.059 77.4997 124.61C77.8077 125.151 77.9617 125.791 77.9617 126.528C77.9617 127.265 77.8077 127.909 77.4997 128.46C77.1917 129.001 76.7717 129.421 76.2397 129.72C75.717 130.019 75.129 130.168 74.4757 130.168ZM74.4757 129.16C74.877 129.16 75.2504 129.062 75.5957 128.866C75.941 128.67 76.221 128.376 76.4357 127.984C76.6504 127.592 76.7577 127.107 76.7577 126.528C76.7577 125.949 76.6504 125.464 76.4357 125.072C76.2304 124.68 75.955 124.386 75.6097 124.19C75.2644 123.994 74.8957 123.896 74.5037 123.896C74.1024 123.896 73.729 123.994 73.3837 124.19C73.0384 124.386 72.7584 124.68 72.5437 125.072C72.329 125.464 72.2217 125.949 72.2217 126.528C72.2217 127.107 72.329 127.592 72.5437 127.984C72.7584 128.376 73.0337 128.67 73.3697 128.866C73.715 129.062 74.0837 129.16 74.4757 129.16ZM79.5969 130V119.92H80.7729V124.246C81.0062 123.817 81.3375 123.485 81.7669 123.252C82.1962 123.009 82.6629 122.888 83.1669 122.888C83.9695 122.888 84.6135 123.14 85.0989 123.644C85.5842 124.139 85.8269 124.904 85.8269 125.94V130H84.6649V126.066C84.6649 124.619 84.0815 123.896 82.9149 123.896C82.3082 123.896 81.7995 124.115 81.3889 124.554C80.9782 124.983 80.7729 125.599 80.7729 126.402V130H79.5969ZM89.9186 130.168C89.3399 130.168 88.8592 130.07 88.4766 129.874C88.0939 129.678 87.8092 129.417 87.6226 129.09C87.4359 128.763 87.3426 128.409 87.3426 128.026C87.3426 127.317 87.6132 126.771 88.1546 126.388C88.6959 126.005 89.4332 125.814 90.3666 125.814H92.2426V125.73C92.2426 125.123 92.0839 124.666 91.7666 124.358C91.4492 124.041 91.0246 123.882 90.4926 123.882C90.0352 123.882 89.6386 123.999 89.3026 124.232C88.9759 124.456 88.7706 124.787 88.6866 125.226H87.4826C87.5292 124.722 87.6972 124.297 87.9866 123.952C88.2852 123.607 88.6539 123.345 89.0926 123.168C89.5312 122.981 89.9979 122.888 90.4926 122.888C91.4632 122.888 92.1912 123.149 92.6766 123.672C93.1712 124.185 93.4186 124.871 93.4186 125.73V130H92.3686L92.2986 128.754C92.1026 129.146 91.8132 129.482 91.4306 129.762C91.0572 130.033 90.5532 130.168 89.9186 130.168ZM90.1006 129.174C90.5486 129.174 90.9312 129.057 91.2486 128.824C91.5752 128.591 91.8226 128.287 91.9906 127.914C92.1586 127.541 92.2426 127.149 92.2426 126.738V126.724H90.4646C89.7739 126.724 89.2839 126.845 88.9946 127.088C88.7146 127.321 88.5746 127.615 88.5746 127.97C88.5746 128.334 88.7052 128.628 88.9666 128.852C89.2372 129.067 89.6152 129.174 90.1006 129.174ZM95.1828 130V123.056H96.2468L96.3168 124.302C96.5408 123.863 96.8628 123.518 97.2828 123.266C97.7028 123.014 98.1788 122.888 98.7108 122.888C99.5321 122.888 100.185 123.14 100.671 123.644C101.165 124.139 101.413 124.904 101.413 125.94V130H100.237V126.066C100.237 124.619 99.6395 123.896 98.4448 123.896C97.8475 123.896 97.3481 124.115 96.9468 124.554C96.5548 124.983 96.3588 125.599 96.3588 126.402V130H95.1828ZM106.97 130V120.2H108.342L111.87 127.032L115.37 120.2H116.756V130H115.58V122.3L112.304 128.6H111.422L108.146 122.314V130H106.97ZM121.063 130.168C120.484 130.168 120.004 130.07 119.621 129.874C119.238 129.678 118.954 129.417 118.767 129.09C118.58 128.763 118.487 128.409 118.487 128.026C118.487 127.317 118.758 126.771 119.299 126.388C119.84 126.005 120.578 125.814 121.511 125.814H123.387V125.73C123.387 125.123 123.228 124.666 122.911 124.358C122.594 124.041 122.169 123.882 121.637 123.882C121.18 123.882 120.783 123.999 120.447 124.232C120.12 124.456 119.915 124.787 119.831 125.226H118.627C118.674 124.722 118.842 124.297 119.131 123.952C119.43 123.607 119.798 123.345 120.237 123.168C120.676 122.981 121.142 122.888 121.637 122.888C122.608 122.888 123.336 123.149 123.821 123.672C124.316 124.185 124.563 124.871 124.563 125.73V130H123.513L123.443 128.754C123.247 129.146 122.958 129.482 122.575 129.762C122.202 130.033 121.698 130.168 121.063 130.168ZM121.245 129.174C121.693 129.174 122.076 129.057 122.393 128.824C122.72 128.591 122.967 128.287 123.135 127.914C123.303 127.541 123.387 127.149 123.387 126.738V126.724H121.609C120.918 126.724 120.428 126.845 120.139 127.088C119.859 127.321 119.719 127.615 119.719 127.97C119.719 128.334 119.85 128.628 120.111 128.852C120.382 129.067 120.76 129.174 121.245 129.174ZM126.327 130V119.92H127.503V130H126.327ZM129.431 130V119.92H130.607V130H129.431ZM133.248 121.516C133.015 121.516 132.819 121.441 132.66 121.292C132.511 121.133 132.436 120.937 132.436 120.704C132.436 120.48 132.511 120.293 132.66 120.144C132.819 119.995 133.015 119.92 133.248 119.92C133.472 119.92 133.664 119.995 133.822 120.144C133.981 120.293 134.06 120.48 134.06 120.704C134.06 120.937 133.981 121.133 133.822 121.292C133.664 121.441 133.472 121.516 133.248 121.516ZM132.66 130V123.056H133.836V130H132.66ZM139.076 130.168C138.413 130.168 137.816 130.019 137.284 129.72C136.761 129.412 136.346 128.987 136.038 128.446C135.739 127.895 135.59 127.256 135.59 126.528C135.59 125.8 135.739 125.165 136.038 124.624C136.346 124.073 136.761 123.649 137.284 123.35C137.816 123.042 138.413 122.888 139.076 122.888C139.897 122.888 140.588 123.103 141.148 123.532C141.717 123.961 142.077 124.535 142.226 125.254H141.022C140.929 124.825 140.7 124.493 140.336 124.26C139.972 124.017 139.547 123.896 139.062 123.896C138.67 123.896 138.301 123.994 137.956 124.19C137.611 124.386 137.331 124.68 137.116 125.072C136.901 125.464 136.794 125.949 136.794 126.528C136.794 127.107 136.901 127.592 137.116 127.984C137.331 128.376 137.611 128.675 137.956 128.88C138.301 129.076 138.67 129.174 139.062 129.174C139.547 129.174 139.972 129.057 140.336 128.824C140.7 128.581 140.929 128.241 141.022 127.802H142.226C142.086 128.502 141.731 129.071 141.162 129.51C140.593 129.949 139.897 130.168 139.076 130.168ZM143.868 130V119.92H145.044V125.982L147.886 123.056H149.328L146.248 126.192L149.72 130H148.222L145.044 126.402V130H143.868Z" fill="white"/>
<path fill-rule="evenodd" clip-rule="evenodd" d="M414 44.9996C414 48.6476 412.605 52.1006 410.071 54.7246C409.688 55.1216 409.054 55.1326 408.657 54.7496C408.454 54.5536 408.352 54.2916 408.352 54.0306C408.352 53.7806 408.445 53.5296 408.633 53.3356C410.804 51.0856 412 48.1256 412 44.9996C412 41.8736 410.804 38.9136 408.633 36.6636C408.248 36.2686 408.259 35.6346 408.657 35.2496C409.054 34.8676 409.688 34.8776 410.071 35.2756C412.605 37.8996 414 41.3526 414 44.9996ZM409 45C409 42.572 407.999 40.212 406.252 38.525C405.854 38.143 405.221 38.153 404.838 38.551C404.454 38.947 404.465 39.582 404.862 39.965C406.221 41.276 407 43.111 407 45C407 46.889 406.221 48.724 404.862 50.035C404.659 50.231 404.557 50.493 404.557 50.755C404.557 51.005 404.65 51.256 404.838 51.449C405.221 51.847 405.854 51.857 406.252 51.475C407.999 49.788 409 47.428 409 45ZM402.597 41.527C403.501 42.464 404 43.697 404 45C404 46.303 403.501 47.536 402.597 48.473C402.213 48.87 401.58 48.881 401.183 48.498C400.979 48.302 400.877 48.04 400.877 47.778C400.877 47.528 400.971 47.277 401.158 47.084C402.244 45.959 402.244 44.041 401.158 42.916C400.774 42.521 400.785 41.887 401.183 41.502C401.58 41.119 402.213 41.13 402.597 41.527ZM399 44C399.552 44 400 44.447 400 45C400 45.553 399.552 46 399 46C398.448 46 398 45.553 398 45C398 44.447 398.448 44 399 44Z" fill="white"/>
<path d="M38.426 52.264C36.9007 52.264 35.5807 51.934 34.466 51.274C33.366 50.5993 32.5153 49.668 31.914 48.48C31.3127 47.2773 31.012 45.8913 31.012 44.322C31.012 42.738 31.3127 41.352 31.914 40.164C32.5153 38.9613 33.366 38.0227 34.466 37.348C35.5807 36.6733 36.9007 36.336 38.426 36.336C40.23 36.336 41.704 36.776 42.848 37.656C43.992 38.536 44.718 39.768 45.026 41.352H42.43C42.2247 40.4573 41.7847 39.746 41.11 39.218C40.4353 38.69 39.5333 38.426 38.404 38.426C36.864 38.426 35.6467 38.954 34.752 40.01C33.8573 41.0513 33.41 42.4887 33.41 44.322C33.41 46.1407 33.8573 47.5707 34.752 48.612C35.6467 49.6533 36.864 50.174 38.404 50.174C39.5333 50.174 40.4353 49.9247 41.11 49.426C41.7847 48.9273 42.2247 48.2453 42.43 47.38H45.026C44.718 48.9053 43.992 50.1007 42.848 50.966C41.704 51.8313 40.23 52.264 38.426 52.264ZM47.5013 52V41.088H49.5913L49.7893 43.156C50.1707 42.4373 50.6987 41.8727 51.3733 41.462C52.0627 41.0367 52.8913 40.824 53.8593 40.824V43.266H53.2213C52.576 43.266 51.9967 43.376 51.4833 43.596C50.9847 43.8013 50.5813 44.1607 50.2733 44.674C49.98 45.1727 49.8333 45.8693 49.8333 46.764V52H47.5013ZM59.5548 52.264C58.6308 52.264 57.8681 52.11 57.2668 51.802C56.6654 51.494 56.2181 51.0907 55.9248 50.592C55.6314 50.0787 55.4848 49.5213 55.4848 48.92C55.4848 47.864 55.8954 47.028 56.7168 46.412C57.5381 45.796 58.7114 45.488 60.2368 45.488H63.0968V45.29C63.0968 44.4393 62.8621 43.8013 62.3928 43.376C61.9381 42.9507 61.3441 42.738 60.6108 42.738C59.9654 42.738 59.4008 42.8993 58.9168 43.222C58.4474 43.53 58.1614 43.992 58.0588 44.608H55.7268C55.8001 43.816 56.0641 43.1413 56.5188 42.584C56.9881 42.012 57.5748 41.5793 58.2788 41.286C58.9974 40.978 59.7821 40.824 60.6328 40.824C62.1581 40.824 63.3388 41.2273 64.1748 42.034C65.0108 42.826 65.4288 43.9113 65.4288 45.29V52H63.4048L63.2068 50.13C62.8988 50.7313 62.4514 51.2373 61.8648 51.648C61.2781 52.0587 60.5081 52.264 59.5548 52.264ZM60.0168 50.372C60.6474 50.372 61.1754 50.2253 61.6008 49.932C62.0408 49.624 62.3781 49.2207 62.6128 48.722C62.8621 48.2233 63.0161 47.6733 63.0748 47.072H60.4788C59.5548 47.072 58.8948 47.2333 58.4988 47.556C58.1174 47.8787 57.9268 48.282 57.9268 48.766C57.9268 49.2647 58.1101 49.6607 58.4768 49.954C58.8581 50.2327 59.3714 50.372 60.0168 50.372ZM68.6978 52V43.046H67.1358V41.088H68.6978V39.504C68.6978 38.316 68.9912 37.4653 69.5778 36.952C70.1792 36.424 71.0225 36.16 72.1078 36.16H73.2518V38.14H72.4598C71.9465 38.14 71.5798 38.25 71.3598 38.47C71.1398 38.6753 71.0298 39.0273 71.0298 39.526V41.088H73.5378V43.046H71.0298V52H68.6978ZM80.3293 52C79.2586 52 78.408 51.7433 77.7773 51.23C77.1466 50.702 76.8313 49.7707 76.8313 48.436V43.046H74.9613V41.088H76.8313L77.1173 38.316H79.1633V41.088H82.2433V43.046H79.1633V48.436C79.1633 49.0373 79.288 49.4553 79.5373 49.69C79.8013 49.91 80.2486 50.02 80.8793 50.02H82.1333V52H80.3293ZM86.8258 52L83.6138 41.088H85.9458L88.0578 49.316L90.4338 41.088H93.0298L95.4058 49.316L97.5178 41.088H99.8498L96.6378 52H94.2398L91.7318 43.42L89.2238 52H86.8258ZM106.467 52.264C105.425 52.264 104.487 52.0293 103.651 51.56C102.829 51.076 102.177 50.4087 101.693 49.558C101.209 48.6927 100.967 47.688 100.967 46.544C100.967 45.4 101.209 44.4027 101.693 43.552C102.191 42.6867 102.859 42.0193 103.695 41.55C104.531 41.066 105.462 40.824 106.489 40.824C107.53 40.824 108.461 41.066 109.283 41.55C110.119 42.0193 110.779 42.6867 111.263 43.552C111.761 44.4027 112.011 45.4 112.011 46.544C112.011 47.688 111.761 48.6927 111.263 49.558C110.779 50.4087 110.119 51.076 109.283 51.56C108.447 52.0293 107.508 52.264 106.467 52.264ZM106.467 50.262C107.024 50.262 107.537 50.1227 108.007 49.844C108.491 49.5653 108.879 49.1547 109.173 48.612C109.466 48.0547 109.613 47.3653 109.613 46.544C109.613 45.7227 109.466 45.0407 109.173 44.498C108.894 43.9407 108.513 43.5227 108.029 43.244C107.559 42.9653 107.046 42.826 106.489 42.826C105.931 42.826 105.411 42.9653 104.927 43.244C104.457 43.5227 104.076 43.9407 103.783 44.498C103.489 45.0407 103.343 45.7227 103.343 46.544C103.343 47.3653 103.489 48.0547 103.783 48.612C104.076 49.1547 104.457 49.5653 104.927 49.844C105.396 50.1227 105.909 50.262 106.467 50.262ZM114.533 52V41.088H116.623L116.821 43.156C117.202 42.4373 117.73 41.8727 118.405 41.462C119.094 41.0367 119.923 40.824 120.891 40.824V43.266H120.253C119.607 43.266 119.028 43.376 118.515 43.596C118.016 43.8013 117.613 44.1607 117.305 44.674C117.011 45.1727 116.865 45.8693 116.865 46.764V52H114.533ZM122.89 52V36.16H125.222V45.598L129.402 41.088H132.196L127.554 46.038L132.878 52H129.93L125.222 46.412V52H122.89ZM134.773 52V36.6H140.581C142.18 36.6 143.39 36.974 144.211 37.722C145.032 38.47 145.443 39.4087 145.443 40.538C145.443 41.5207 145.179 42.3053 144.651 42.892C144.123 43.464 143.485 43.8527 142.737 44.058C143.324 44.1753 143.844 44.41 144.299 44.762C144.768 45.114 145.135 45.554 145.399 46.082C145.663 46.61 145.795 47.182 145.795 47.798C145.795 48.59 145.597 49.3087 145.201 49.954C144.82 50.5847 144.255 51.0833 143.507 51.45C142.759 51.8167 141.842 52 140.757 52H134.773ZM137.105 43.2H140.295C141.19 43.2 141.872 42.9947 142.341 42.584C142.81 42.1587 143.045 41.5793 143.045 40.846C143.045 40.1273 142.81 39.5553 142.341 39.13C141.886 38.7047 141.19 38.492 140.251 38.492H137.105V43.2ZM137.105 50.086H140.449C141.388 50.086 142.114 49.866 142.627 49.426C143.155 48.986 143.419 48.37 143.419 47.578C143.419 46.786 143.148 46.1627 142.605 45.708C142.062 45.2387 141.329 45.004 140.405 45.004H137.105V50.086ZM151.959 52.264C151.035 52.264 150.272 52.11 149.671 51.802C149.07 51.494 148.622 51.0907 148.329 50.592C148.036 50.0787 147.889 49.5213 147.889 48.92C147.889 47.864 148.3 47.028 149.121 46.412C149.942 45.796 151.116 45.488 152.641 45.488H155.501V45.29C155.501 44.4393 155.266 43.8013 154.797 43.376C154.342 42.9507 153.748 42.738 153.015 42.738C152.37 42.738 151.805 42.8993 151.321 43.222C150.852 43.53 150.566 43.992 150.463 44.608H148.131C148.204 43.816 148.468 43.1413 148.923 42.584C149.392 42.012 149.979 41.5793 150.683 41.286C151.402 40.978 152.186 40.824 153.037 40.824C154.562 40.824 155.743 41.2273 156.579 42.034C157.415 42.826 157.833 43.9113 157.833 45.29V52H155.809L155.611 50.13C155.303 50.7313 154.856 51.2373 154.269 51.648C153.682 52.0587 152.912 52.264 151.959 52.264ZM152.421 50.372C153.052 50.372 153.58 50.2253 154.005 49.932C154.445 49.624 154.782 49.2207 155.017 48.722C155.266 48.2233 155.42 47.6733 155.479 47.072H152.883C151.959 47.072 151.299 47.2333 150.903 47.556C150.522 47.8787 150.331 48.282 150.331 48.766C150.331 49.2647 150.514 49.6607 150.881 49.954C151.262 50.2327 151.776 50.372 152.421 50.372ZM160.552 52V41.088H162.62L162.796 43.002C163.133 42.3273 163.625 41.7993 164.27 41.418C164.93 41.022 165.685 40.824 166.536 40.824C167.856 40.824 168.89 41.2347 169.638 42.056C170.401 42.8773 170.782 44.102 170.782 45.73V52H168.472V45.972C168.472 43.86 167.607 42.804 165.876 42.804C165.011 42.804 164.292 43.112 163.72 43.728C163.163 44.344 162.884 45.224 162.884 46.368V52H160.552ZM173.529 52V36.16H175.861V45.598L180.041 41.088H182.835L178.193 46.038L183.517 52H180.569L175.861 46.412V52H173.529Z" fill="white"/>
</svg>
