<svg width="448" height="260" viewBox="0 0 448 260" fill="none" xmlns="http://www.w3.org/2000/svg">
<rect width="448" height="260" rx="10" fill="#34B53A"/>
<path fill-rule="evenodd" clip-rule="evenodd" d="M304.134 225.81H313.836V208.376H304.134V225.81Z" fill="#FF3A29"/>
<path fill-rule="evenodd" clip-rule="evenodd" d="M304.75 217.093C304.75 213.556 306.406 210.406 308.985 208.376C307.099 206.891 304.72 206.005 302.133 206.005C296.01 206.005 291.046 210.969 291.046 217.093C291.046 223.217 296.01 228.181 302.133 228.181C304.72 228.181 307.099 227.295 308.985 225.81C306.406 223.78 304.75 220.63 304.75 217.093" fill="#FF3A29"/>
<path fill-rule="evenodd" clip-rule="evenodd" d="M326.579 223.964V223.533H326.466L326.337 223.829L326.208 223.533H326.095V223.964H326.175V223.639L326.296 223.919H326.378L326.499 223.638V223.964H326.579ZM325.867 223.964V223.607H326.011V223.534H325.644V223.607H325.788V223.964H325.867ZM326.925 217.093C326.925 223.217 321.961 228.181 315.838 228.181C313.251 228.181 310.872 227.295 308.985 225.81C311.564 223.78 313.22 220.63 313.22 217.093C313.22 213.556 311.564 210.406 308.985 208.376C310.872 206.891 313.251 206.005 315.838 206.005C321.961 206.005 326.925 210.969 326.925 217.093V217.093Z" fill="#FFB200"/>
<path fill-rule="evenodd" clip-rule="evenodd" d="M349.07 217.141C349.07 215.845 349.918 214.781 351.307 214.781C352.633 214.781 353.528 215.799 353.528 217.141C353.528 218.483 352.633 219.501 351.307 219.501C349.918 219.501 349.07 218.437 349.07 217.141ZM355.04 217.141V213.454H353.435V214.349C352.926 213.686 352.155 213.269 351.106 213.269C349.039 213.269 347.419 214.889 347.419 217.141C347.419 219.393 349.039 221.013 351.106 221.013C352.155 221.013 352.926 220.597 353.435 219.933V220.828H355.04V217.141ZM409.219 217.141C409.219 215.845 410.067 214.781 411.455 214.781C412.782 214.781 413.677 215.799 413.677 217.141C413.677 218.483 412.782 219.501 411.455 219.501C410.067 219.501 409.219 218.437 409.219 217.141ZM416.984 220.478V220.594H417.09C417.114 220.594 417.134 220.589 417.149 220.579C417.163 220.57 417.17 220.555 417.17 220.535C417.17 220.516 417.163 220.502 417.149 220.492C417.134 220.483 417.114 220.478 417.09 220.478H416.984ZM417.091 220.397C417.147 220.397 417.19 220.409 417.22 220.434C417.251 220.459 417.266 220.493 417.266 220.535C417.266 220.571 417.254 220.601 417.229 220.624C417.205 220.648 417.171 220.662 417.127 220.667L417.269 220.831H417.158L417.026 220.669H416.984V220.831H416.891V220.397H417.091ZM417.064 220.981C417.114 220.981 417.161 220.971 417.205 220.952C417.248 220.932 417.287 220.907 417.32 220.874C417.353 220.841 417.378 220.802 417.397 220.758C417.416 220.713 417.425 220.666 417.425 220.616C417.425 220.565 417.416 220.518 417.397 220.474C417.378 220.429 417.353 220.39 417.32 220.357C417.287 220.325 417.248 220.299 417.205 220.28C417.161 220.261 417.114 220.252 417.064 220.252C417.012 220.252 416.964 220.261 416.92 220.28C416.875 220.299 416.836 220.325 416.803 220.357C416.77 220.39 416.745 220.429 416.726 220.474C416.707 220.518 416.698 220.565 416.698 220.616C416.698 220.666 416.707 220.713 416.726 220.758C416.745 220.802 416.77 220.841 416.803 220.874C416.836 220.907 416.875 220.932 416.92 220.952C416.964 220.971 417.012 220.981 417.064 220.981ZM417.064 220.148C417.13 220.148 417.191 220.16 417.249 220.184C417.307 220.209 417.357 220.242 417.4 220.285C417.443 220.327 417.478 220.377 417.502 220.434C417.527 220.491 417.54 220.551 417.54 220.616C417.54 220.68 417.527 220.74 417.502 220.797C417.478 220.853 417.443 220.903 417.4 220.945C417.357 220.988 417.307 221.021 417.249 221.046C417.191 221.071 417.13 221.084 417.064 221.084C416.996 221.084 416.934 221.071 416.875 221.046C416.817 221.021 416.766 220.988 416.723 220.945C416.68 220.903 416.646 220.853 416.622 220.797C416.597 220.74 416.584 220.68 416.584 220.616C416.584 220.551 416.597 220.491 416.622 220.434C416.646 220.377 416.68 220.327 416.723 220.285C416.766 220.242 416.817 220.209 416.875 220.184C416.934 220.16 416.996 220.148 417.064 220.148ZM415.189 217.141V210.492H413.584V214.349C413.075 213.686 412.304 213.269 411.255 213.269C409.188 213.269 407.568 214.889 407.568 217.141C407.568 219.393 409.188 221.013 411.255 221.013C412.304 221.013 413.075 220.597 413.584 219.933V220.828H415.189V217.141ZM374.94 214.704C375.974 214.704 376.637 215.352 376.807 216.493H372.981C373.151 215.429 373.799 214.704 374.94 214.704ZM374.971 213.269C372.811 213.269 371.3 214.842 371.3 217.141C371.3 219.486 372.873 221.013 375.079 221.013C376.19 221.013 377.208 220.736 378.103 219.98L377.316 218.792C376.699 219.285 375.912 219.563 375.172 219.563C374.138 219.563 373.197 219.085 372.966 217.758H378.442C378.458 217.558 378.473 217.357 378.473 217.141C378.458 214.842 377.038 213.269 374.971 213.269ZM394.332 217.141C394.332 215.845 395.18 214.781 396.569 214.781C397.895 214.781 398.79 215.799 398.79 217.141C398.79 218.483 397.895 219.501 396.569 219.501C395.18 219.501 394.332 218.437 394.332 217.141ZM400.302 217.141V213.454H398.698V214.349C398.188 213.686 397.417 213.269 396.368 213.269C394.301 213.269 392.681 214.889 392.681 217.141C392.681 219.393 394.301 221.013 396.368 221.013C397.417 221.013 398.188 220.597 398.698 219.933V220.828H400.302V217.141ZM385.276 217.141C385.276 219.378 386.834 221.013 389.21 221.013C390.321 221.013 391.061 220.766 391.863 220.134L391.092 218.838C390.491 219.27 389.858 219.501 389.164 219.501C387.883 219.486 386.942 218.56 386.942 217.141C386.942 215.722 387.883 214.796 389.164 214.781C389.858 214.781 390.491 215.012 391.092 215.444L391.863 214.148C391.061 213.516 390.321 213.269 389.21 213.269C386.834 213.269 385.276 214.904 385.276 217.141ZM405.948 213.269C405.022 213.269 404.421 213.701 404.004 214.349V213.454H402.415V220.828H404.019V216.694C404.019 215.475 404.544 214.796 405.593 214.796C405.917 214.796 406.256 214.842 406.596 214.981L407.09 213.47C406.735 213.331 406.272 213.269 405.948 213.269ZM362.969 214.04C362.198 213.531 361.133 213.269 359.961 213.269C358.094 213.269 356.891 214.164 356.891 215.629C356.891 216.833 357.786 217.573 359.436 217.804L360.192 217.913C361.072 218.036 361.488 218.267 361.488 218.684C361.488 219.255 360.902 219.578 359.807 219.578C358.696 219.578 357.894 219.224 357.354 218.807L356.598 220.057C357.477 220.705 358.588 221.013 359.791 221.013C361.92 221.013 363.154 220.01 363.154 218.607C363.154 217.311 362.182 216.632 360.578 216.401L359.822 216.293C359.128 216.2 358.573 216.061 358.573 215.568C358.573 215.028 359.097 214.704 359.976 214.704C360.917 214.704 361.827 215.059 362.275 215.336L362.969 214.04ZM383.656 213.269C382.731 213.269 382.129 213.701 381.713 214.349V213.454H380.124V220.828H381.728V216.694C381.728 215.475 382.253 214.796 383.302 214.796C383.626 214.796 383.965 214.842 384.304 214.981L384.798 213.47C384.443 213.331 383.98 213.269 383.656 213.269ZM369.973 213.454H367.35V211.217H365.73V213.454H364.234V214.92H365.73V218.283C365.73 219.995 366.394 221.013 368.291 221.013C368.985 221.013 369.788 220.797 370.297 220.442L369.834 219.069C369.356 219.347 368.831 219.486 368.415 219.486C367.612 219.486 367.35 218.992 367.35 218.252V214.92H369.973V213.454ZM346 220.828V216.2C346 214.457 344.889 213.285 343.1 213.269C342.159 213.254 341.187 213.547 340.508 214.58C339.999 213.763 339.196 213.269 338.07 213.269C337.284 213.269 336.512 213.5 335.911 214.364V213.454H334.306V220.828H335.926V216.74C335.926 215.46 336.636 214.781 337.731 214.781C338.795 214.781 339.335 215.475 339.335 216.725V220.828H340.955V216.74C340.955 215.46 341.696 214.781 342.76 214.781C343.855 214.781 344.38 215.475 344.38 216.725V220.828H346V220.828Z" fill="white"/>
<path d="M36.94 224.24C35.7 224.24 34.6267 223.94 33.72 223.34C32.8267 222.727 32.14 221.88 31.66 220.8C31.18 219.707 30.94 218.44 30.94 217C30.94 215.56 31.18 214.3 31.66 213.22C32.14 212.127 32.8267 211.28 33.72 210.68C34.6267 210.067 35.7 209.76 36.94 209.76C38.18 209.76 39.2467 210.067 40.14 210.68C41.0333 211.28 41.72 212.127 42.2 213.22C42.68 214.3 42.92 215.56 42.92 217C42.92 218.44 42.68 219.707 42.2 220.8C41.72 221.88 41.0333 222.727 40.14 223.34C39.2467 223.94 38.18 224.24 36.94 224.24ZM36.94 222.76C37.7533 222.76 38.48 222.533 39.12 222.08C39.7733 221.613 40.28 220.953 40.64 220.1C41.0133 219.233 41.2 218.2 41.2 217C41.2 215.8 41.0133 214.773 40.64 213.92C40.28 213.067 39.7733 212.413 39.12 211.96C38.48 211.493 37.7533 211.26 36.94 211.26C36.1133 211.26 35.38 211.493 34.74 211.96C34.1 212.413 33.5933 213.067 33.22 213.92C32.8467 214.773 32.66 215.8 32.66 217C32.66 218.2 32.8467 219.233 33.22 220.1C33.5933 220.953 34.1 221.613 34.74 222.08C35.38 222.533 36.1133 222.76 36.94 222.76ZM50.3872 224.24C49.3739 224.24 48.5205 224.053 47.8272 223.68C47.1339 223.293 46.5739 222.78 46.1472 222.14C45.7339 221.5 45.4272 220.787 45.2272 220C45.0405 219.2 44.9472 218.387 44.9472 217.56C44.9472 216.013 45.1605 214.66 45.5872 213.5C46.0139 212.327 46.6272 211.413 47.4272 210.76C48.2405 210.093 49.2205 209.76 50.3672 209.76C51.2472 209.76 52.0005 209.933 52.6272 210.28C53.2539 210.627 53.7472 211.093 54.1072 211.68C54.4805 212.253 54.7139 212.893 54.8072 213.6H53.2472C53.1005 212.84 52.7739 212.253 52.2672 211.84C51.7605 211.427 51.1205 211.22 50.3472 211.22C49.2939 211.22 48.4072 211.72 47.6872 212.72C46.9805 213.707 46.6005 215.253 46.5472 217.36C46.8672 216.733 47.3739 216.193 48.0672 215.74C48.7739 215.273 49.6205 215.04 50.6072 215.04C51.4072 215.04 52.1539 215.227 52.8472 215.6C53.5539 215.973 54.1272 216.5 54.5672 217.18C55.0072 217.847 55.2272 218.633 55.2272 219.54C55.2272 220.327 55.0339 221.08 54.6472 221.8C54.2605 222.52 53.7005 223.107 52.9672 223.56C52.2472 224.013 51.3872 224.24 50.3872 224.24ZM50.2672 222.76C50.8939 222.76 51.4539 222.627 51.9472 222.36C52.4405 222.093 52.8272 221.727 53.1072 221.26C53.3872 220.78 53.5272 220.233 53.5272 219.62C53.5272 218.673 53.2139 217.92 52.5872 217.36C51.9739 216.787 51.2005 216.5 50.2672 216.5C49.6405 216.5 49.0805 216.647 48.5872 216.94C48.0939 217.22 47.7005 217.6 47.4072 218.08C47.1272 218.56 46.9872 219.08 46.9872 219.64C46.9872 220.24 47.1272 220.78 47.4072 221.26C47.7005 221.727 48.0939 222.093 48.5872 222.36C49.0805 222.627 49.6405 222.76 50.2672 222.76ZM62.3178 225.9L67.3378 208.72H68.9978L63.9778 225.9H62.3178ZM76.1233 224V222.82C77.0699 222.073 77.9633 221.32 78.8033 220.56C79.6566 219.787 80.4099 219.027 81.0633 218.28C81.7299 217.533 82.2499 216.8 82.6233 216.08C83.0099 215.36 83.2033 214.667 83.2033 214C83.2033 213.507 83.1166 213.047 82.9433 212.62C82.7833 212.193 82.5166 211.853 82.1433 211.6C81.7699 211.333 81.2633 211.2 80.6233 211.2C80.0099 211.2 79.4966 211.34 79.0833 211.62C78.6699 211.887 78.3566 212.247 78.1433 212.7C77.9433 213.153 77.8433 213.64 77.8433 214.16H76.2233C76.2233 213.24 76.4166 212.453 76.8033 211.8C77.1899 211.133 77.7166 210.627 78.3833 210.28C79.0499 209.933 79.8033 209.76 80.6433 209.76C81.8833 209.76 82.8966 210.113 83.6833 210.82C84.4833 211.513 84.8833 212.553 84.8833 213.94C84.8833 214.767 84.6766 215.587 84.2633 216.4C83.8499 217.2 83.3233 217.98 82.6833 218.74C82.0433 219.487 81.3566 220.187 80.6233 220.84C79.9033 221.493 79.2299 222.08 78.6033 222.6H85.3633V224H76.1233ZM93.7966 224V221H86.6966V219.7L93.4966 210H95.4566V219.52H97.5366V221H95.4566V224H93.7966ZM88.5566 219.52H93.8766V211.86L88.5566 219.52Z" fill="white"/>
<path d="M33.146 167V154.24L30.66 154.812V153.096L34.07 151.6H35.566V167H33.146ZM44.8548 167.264C43.4615 167.264 42.2588 166.934 41.2468 166.274C40.2495 165.599 39.4795 164.668 38.9368 163.48C38.4088 162.277 38.1448 160.884 38.1448 159.3C38.1448 157.716 38.4088 156.33 38.9368 155.142C39.4795 153.939 40.2495 153.008 41.2468 152.348C42.2588 151.673 43.4615 151.336 44.8548 151.336C46.2481 151.336 47.4435 151.673 48.4408 152.348C49.4381 153.008 50.2008 153.939 50.7288 155.142C51.2715 156.33 51.5428 157.716 51.5428 159.3C51.5428 160.884 51.2715 162.277 50.7288 163.48C50.2008 164.668 49.4381 165.599 48.4408 166.274C47.4435 166.934 46.2481 167.264 44.8548 167.264ZM44.8548 165.174C45.6908 165.174 46.4315 164.939 47.0768 164.47C47.7368 164.001 48.2501 163.326 48.6168 162.446C48.9835 161.566 49.1668 160.517 49.1668 159.3C49.1668 158.083 48.9835 157.034 48.6168 156.154C48.2501 155.274 47.7368 154.599 47.0768 154.13C46.4315 153.661 45.6908 153.426 44.8548 153.426C44.0041 153.426 43.2561 153.661 42.6108 154.13C41.9655 154.599 41.4595 155.274 41.0928 156.154C40.7261 157.034 40.5428 158.083 40.5428 159.3C40.5428 160.517 40.7261 161.566 41.0928 162.446C41.4595 163.326 41.9655 164.001 42.6108 164.47C43.2561 164.939 44.0041 165.174 44.8548 165.174ZM60.3021 167.264C58.9087 167.264 57.7061 166.934 56.6941 166.274C55.6967 165.599 54.9267 164.668 54.3841 163.48C53.8561 162.277 53.5921 160.884 53.5921 159.3C53.5921 157.716 53.8561 156.33 54.3841 155.142C54.9267 153.939 55.6967 153.008 56.6941 152.348C57.7061 151.673 58.9087 151.336 60.3021 151.336C61.6954 151.336 62.8907 151.673 63.8881 152.348C64.8854 153.008 65.6481 153.939 66.1761 155.142C66.7187 156.33 66.9901 157.716 66.9901 159.3C66.9901 160.884 66.7187 162.277 66.1761 163.48C65.6481 164.668 64.8854 165.599 63.8881 166.274C62.8907 166.934 61.6954 167.264 60.3021 167.264ZM60.3021 165.174C61.1381 165.174 61.8787 164.939 62.5241 164.47C63.1841 164.001 63.6974 163.326 64.0641 162.446C64.4307 161.566 64.6141 160.517 64.6141 159.3C64.6141 158.083 64.4307 157.034 64.0641 156.154C63.6974 155.274 63.1841 154.599 62.5241 154.13C61.8787 153.661 61.1381 153.426 60.3021 153.426C59.4514 153.426 58.7034 153.661 58.0581 154.13C57.4127 154.599 56.9067 155.274 56.5401 156.154C56.1734 157.034 55.9901 158.083 55.9901 159.3C55.9901 160.517 56.1734 161.566 56.5401 162.446C56.9067 163.326 57.4127 164.001 58.0581 164.47C58.7034 164.939 59.4514 165.174 60.3021 165.174ZM74.9573 167.264C73.872 167.264 72.9333 167.073 72.1413 166.692C71.3493 166.296 70.7187 165.761 70.2493 165.086C69.7947 164.397 69.516 163.619 69.4133 162.754H71.7013C71.848 163.487 72.2147 164.096 72.8013 164.58C73.388 165.049 74.114 165.284 74.9793 165.284C75.6247 165.284 76.182 165.13 76.6513 164.822C77.1207 164.499 77.4873 164.074 77.7513 163.546C78.0153 163.018 78.1473 162.424 78.1473 161.764C78.1473 160.723 77.854 159.894 77.2673 159.278C76.6807 158.647 75.94 158.332 75.0453 158.332C74.2827 158.332 73.63 158.515 73.0873 158.882C72.5447 159.234 72.1487 159.681 71.8993 160.224H69.6773L70.9973 151.6H79.3133V153.646H72.7573L71.9653 157.76C72.3027 157.379 72.7647 157.063 73.3513 156.814C73.9527 156.55 74.6273 156.418 75.3753 156.418C76.4167 156.418 77.3113 156.66 78.0593 157.144C78.8073 157.613 79.3793 158.251 79.7753 159.058C80.186 159.865 80.3913 160.759 80.3913 161.742C80.3913 162.769 80.1713 163.7 79.7313 164.536C79.2913 165.372 78.6607 166.039 77.8393 166.538C77.0327 167.022 76.072 167.264 74.9573 167.264ZM97.2459 159.08L97.5979 155.846L95.0019 157.76L94.0779 156.176L97.0699 154.922L94.0999 153.712L94.9579 152.172L97.6199 154.086L97.2459 150.83H99.0059L98.6319 154.086L101.272 152.172L102.108 153.69L99.1379 154.944L102.13 156.176L101.228 157.738L98.6319 155.846L98.9839 159.08H97.2459ZM108.074 159.08L108.426 155.846L105.83 157.76L104.906 156.176L107.898 154.922L104.928 153.712L105.786 152.172L108.448 154.086L108.074 150.83H109.834L109.46 154.086L112.1 152.172L112.936 153.69L109.966 154.944L112.958 156.176L112.056 157.738L109.46 155.846L109.812 159.08H108.074ZM118.902 159.08L119.254 155.846L116.658 157.76L115.734 156.176L118.726 154.922L115.756 153.712L116.614 152.172L119.276 154.086L118.902 150.83H120.662L120.288 154.086L122.928 152.172L123.764 153.69L120.794 154.944L123.786 156.176L122.884 157.738L120.288 155.846L120.64 159.08H118.902ZM129.73 159.08L130.082 155.846L127.486 157.76L126.562 156.176L129.554 154.922L126.584 153.712L127.442 152.172L130.104 154.086L129.73 150.83H131.49L131.116 154.086L133.756 152.172L134.592 153.69L131.622 154.944L134.614 156.176L133.712 157.738L131.116 155.846L131.468 159.08H129.73ZM151.644 159.08L151.996 155.846L149.4 157.76L148.476 156.176L151.468 154.922L148.498 153.712L149.356 152.172L152.018 154.086L151.644 150.83H153.404L153.03 154.086L155.67 152.172L156.506 153.69L153.536 154.944L156.528 156.176L155.626 157.738L153.03 155.846L153.382 159.08H151.644ZM162.472 159.08L162.824 155.846L160.228 157.76L159.304 156.176L162.296 154.922L159.326 153.712L160.184 152.172L162.846 154.086L162.472 150.83H164.232L163.858 154.086L166.498 152.172L167.334 153.69L164.364 154.944L167.356 156.176L166.454 157.738L163.858 155.846L164.21 159.08H162.472ZM173.301 159.08L173.653 155.846L171.057 157.76L170.133 156.176L173.125 154.922L170.155 153.712L171.013 152.172L173.675 154.086L173.301 150.83H175.061L174.687 154.086L177.327 152.172L178.163 153.69L175.193 154.944L178.185 156.176L177.283 157.738L174.687 155.846L175.039 159.08H173.301ZM184.129 159.08L184.481 155.846L181.885 157.76L180.961 156.176L183.953 154.922L180.983 153.712L181.841 152.172L184.503 154.086L184.129 150.83H185.889L185.515 154.086L188.155 152.172L188.991 153.69L186.021 154.944L189.013 156.176L188.111 157.738L185.515 155.846L185.867 159.08H184.129ZM208.199 167.264C207.187 167.264 206.321 167.066 205.603 166.67C204.884 166.274 204.319 165.746 203.909 165.086C203.513 164.426 203.271 163.707 203.183 162.93H205.361C205.493 163.693 205.808 164.279 206.307 164.69C206.805 165.101 207.443 165.306 208.221 165.306C209.291 165.306 210.171 164.807 210.861 163.81C211.565 162.798 211.939 161.251 211.983 159.168C211.631 159.813 211.081 160.363 210.333 160.818C209.599 161.273 208.749 161.5 207.781 161.5C206.915 161.5 206.101 161.295 205.339 160.884C204.576 160.473 203.96 159.901 203.491 159.168C203.021 158.42 202.787 157.54 202.787 156.528C202.787 155.633 203.007 154.79 203.447 153.998C203.887 153.206 204.503 152.568 205.295 152.084C206.101 151.585 207.055 151.336 208.155 151.336C209.284 151.336 210.237 151.549 211.015 151.974C211.792 152.399 212.415 152.964 212.885 153.668C213.354 154.372 213.691 155.164 213.897 156.044C214.117 156.924 214.227 157.826 214.227 158.75C214.227 160.451 213.985 161.94 213.501 163.216C213.031 164.492 212.349 165.489 211.455 166.208C210.56 166.912 209.475 167.264 208.199 167.264ZM208.309 159.498C208.925 159.498 209.475 159.359 209.959 159.08C210.443 158.801 210.824 158.435 211.103 157.98C211.396 157.511 211.543 156.997 211.543 156.44C211.543 155.839 211.396 155.311 211.103 154.856C210.824 154.387 210.435 154.02 209.937 153.756C209.453 153.492 208.903 153.36 208.287 153.36C207.671 153.36 207.121 153.492 206.637 153.756C206.153 154.02 205.764 154.387 205.471 154.856C205.192 155.311 205.053 155.831 205.053 156.418C205.053 157.357 205.361 158.105 205.977 158.662C206.593 159.219 207.37 159.498 208.309 159.498ZM223.947 167V163.92H216.225V162.072L223.573 151.6H226.257V161.896H228.413V163.92H226.257V167H223.947ZM218.755 161.896H224.079V154.174L218.755 161.896ZM235.564 167.264C234.567 167.264 233.658 167.088 232.836 166.736C232.03 166.369 231.384 165.819 230.9 165.086C230.416 164.353 230.16 163.436 230.13 162.336H232.44C232.47 163.157 232.748 163.854 233.276 164.426C233.819 164.983 234.582 165.262 235.564 165.262C236.503 165.262 237.222 165.005 237.72 164.492C238.219 163.964 238.468 163.311 238.468 162.534C238.468 161.595 238.131 160.899 237.456 160.444C236.796 159.989 235.982 159.762 235.014 159.762H233.87V157.826H235.036C235.902 157.826 236.598 157.621 237.126 157.21C237.669 156.799 237.94 156.22 237.94 155.472C237.94 154.841 237.728 154.328 237.302 153.932C236.892 153.536 236.305 153.338 235.542 153.338C234.75 153.338 234.127 153.573 233.672 154.042C233.218 154.497 232.968 155.069 232.924 155.758H230.614C230.644 154.863 230.864 154.086 231.274 153.426C231.7 152.766 232.279 152.253 233.012 151.886C233.746 151.519 234.589 151.336 235.542 151.336C236.569 151.336 237.427 151.519 238.116 151.886C238.82 152.238 239.348 152.722 239.7 153.338C240.067 153.939 240.25 154.599 240.25 155.318C240.25 156.139 240.023 156.858 239.568 157.474C239.114 158.09 238.505 158.501 237.742 158.706C238.622 158.897 239.348 159.329 239.92 160.004C240.492 160.664 240.778 161.522 240.778 162.578C240.778 163.429 240.58 164.213 240.184 164.932C239.788 165.636 239.202 166.201 238.424 166.626C237.647 167.051 236.694 167.264 235.564 167.264ZM249.024 167.264C247.938 167.264 247 167.073 246.208 166.692C245.416 166.296 244.785 165.761 244.316 165.086C243.861 164.397 243.582 163.619 243.48 162.754H245.768C245.914 163.487 246.281 164.096 246.868 164.58C247.454 165.049 248.18 165.284 249.046 165.284C249.691 165.284 250.248 165.13 250.718 164.822C251.187 164.499 251.554 164.074 251.818 163.546C252.082 163.018 252.214 162.424 252.214 161.764C252.214 160.723 251.92 159.894 251.334 159.278C250.747 158.647 250.006 158.332 249.112 158.332C248.349 158.332 247.696 158.515 247.154 158.882C246.611 159.234 246.215 159.681 245.966 160.224H243.744L245.064 151.6H253.38V153.646H246.824L246.032 157.76C246.369 157.379 246.831 157.063 247.418 156.814C248.019 156.55 248.694 156.418 249.442 156.418C250.483 156.418 251.378 156.66 252.126 157.144C252.874 157.613 253.446 158.251 253.842 159.058C254.252 159.865 254.458 160.759 254.458 161.742C254.458 162.769 254.238 163.7 253.798 164.536C253.358 165.372 252.727 166.039 251.906 166.538C251.099 167.022 250.138 167.264 249.024 167.264Z" fill="white"/>
<path d="M34.158 130.168C33.4393 130.168 32.814 130.037 32.282 129.776C31.75 129.515 31.3393 129.151 31.05 128.684C30.7607 128.217 30.616 127.676 30.616 127.06H31.848C31.848 127.443 31.9367 127.797 32.114 128.124C32.2913 128.441 32.548 128.698 32.884 128.894C33.2293 129.081 33.654 129.174 34.158 129.174C34.8207 129.174 35.334 129.015 35.698 128.698C36.062 128.381 36.244 127.984 36.244 127.508C36.244 127.116 36.16 126.803 35.992 126.57C35.824 126.327 35.5953 126.131 35.306 125.982C35.026 125.833 34.6993 125.702 34.326 125.59C33.962 125.478 33.5793 125.352 33.178 125.212C32.422 124.951 31.862 124.629 31.498 124.246C31.134 123.854 30.952 123.345 30.952 122.72C30.9427 122.197 31.064 121.735 31.316 121.334C31.568 120.923 31.9227 120.606 32.38 120.382C32.8467 120.149 33.3973 120.032 34.032 120.032C34.6573 120.032 35.1987 120.149 35.656 120.382C36.1227 120.615 36.482 120.937 36.734 121.348C36.9953 121.759 37.1307 122.225 37.14 122.748H35.908C35.908 122.477 35.838 122.211 35.698 121.95C35.558 121.679 35.3433 121.46 35.054 121.292C34.774 121.124 34.4193 121.04 33.99 121.04C33.458 121.031 33.0193 121.166 32.674 121.446C32.338 121.726 32.17 122.113 32.17 122.608C32.17 123.028 32.2867 123.35 32.52 123.574C32.7627 123.798 33.0987 123.985 33.528 124.134C33.9573 124.274 34.452 124.437 35.012 124.624C35.4787 124.792 35.8987 124.988 36.272 125.212C36.6453 125.436 36.9347 125.725 37.14 126.08C37.3547 126.435 37.462 126.887 37.462 127.438C37.462 127.905 37.3407 128.348 37.098 128.768C36.8553 129.179 36.4867 129.515 35.992 129.776C35.5067 130.037 34.8953 130.168 34.158 130.168ZM41.3698 130.168C40.7911 130.168 40.3104 130.07 39.9278 129.874C39.5451 129.678 39.2604 129.417 39.0738 129.09C38.8871 128.763 38.7938 128.409 38.7938 128.026C38.7938 127.317 39.0644 126.771 39.6058 126.388C40.1471 126.005 40.8844 125.814 41.8178 125.814H43.6938V125.73C43.6938 125.123 43.5351 124.666 43.2178 124.358C42.9004 124.041 42.4758 123.882 41.9438 123.882C41.4864 123.882 41.0898 123.999 40.7538 124.232C40.4271 124.456 40.2218 124.787 40.1378 125.226H38.9338C38.9804 124.722 39.1484 124.297 39.4378 123.952C39.7364 123.607 40.1051 123.345 40.5438 123.168C40.9824 122.981 41.4491 122.888 41.9438 122.888C42.9144 122.888 43.6424 123.149 44.1278 123.672C44.6224 124.185 44.8698 124.871 44.8698 125.73V130H43.8198L43.7498 128.754C43.5538 129.146 43.2644 129.482 42.8818 129.762C42.5084 130.033 42.0044 130.168 41.3698 130.168ZM41.5518 129.174C41.9998 129.174 42.3824 129.057 42.6998 128.824C43.0264 128.591 43.2738 128.287 43.4418 127.914C43.6098 127.541 43.6938 127.149 43.6938 126.738V126.724H41.9158C41.2251 126.724 40.7351 126.845 40.4458 127.088C40.1658 127.321 40.0258 127.615 40.0258 127.97C40.0258 128.334 40.1564 128.628 40.4178 128.852C40.6884 129.067 41.0664 129.174 41.5518 129.174ZM46.634 130V123.056H47.698L47.768 124.302C47.992 123.863 48.314 123.518 48.734 123.266C49.154 123.014 49.63 122.888 50.162 122.888C50.9833 122.888 51.6366 123.14 52.122 123.644C52.6166 124.139 52.864 124.904 52.864 125.94V130H51.688V126.066C51.688 124.619 51.0906 123.896 49.896 123.896C49.2986 123.896 48.7993 124.115 48.398 124.554C48.006 124.983 47.81 125.599 47.81 126.402V130H46.634ZM57.3897 130C56.755 130 56.2557 129.846 55.8917 129.538C55.5277 129.23 55.3457 128.675 55.3457 127.872V124.05H54.1417V123.056H55.3457L55.4997 121.39H56.5217V123.056H58.5657V124.05H56.5217V127.872C56.5217 128.311 56.6104 128.609 56.7877 128.768C56.965 128.917 57.2777 128.992 57.7257 128.992H58.4537V130H57.3897ZM60.7738 121.516C60.5404 121.516 60.3444 121.441 60.1858 121.292C60.0364 121.133 59.9618 120.937 59.9618 120.704C59.9618 120.48 60.0364 120.293 60.1858 120.144C60.3444 119.995 60.5404 119.92 60.7738 119.92C60.9978 119.92 61.1891 119.995 61.3478 120.144C61.5064 120.293 61.5858 120.48 61.5858 120.704C61.5858 120.937 61.5064 121.133 61.3478 121.292C61.1891 121.441 60.9978 121.516 60.7738 121.516ZM60.1858 130V123.056H61.3618V130H60.1858ZM65.7194 130.168C65.1407 130.168 64.66 130.07 64.2774 129.874C63.8947 129.678 63.61 129.417 63.4234 129.09C63.2367 128.763 63.1434 128.409 63.1434 128.026C63.1434 127.317 63.414 126.771 63.9554 126.388C64.4967 126.005 65.234 125.814 66.1674 125.814H68.0434V125.73C68.0434 125.123 67.8847 124.666 67.5674 124.358C67.25 124.041 66.8254 123.882 66.2934 123.882C65.836 123.882 65.4394 123.999 65.1034 124.232C64.7767 124.456 64.5714 124.787 64.4874 125.226H63.2834C63.33 124.722 63.498 124.297 63.7874 123.952C64.086 123.607 64.4547 123.345 64.8934 123.168C65.332 122.981 65.7987 122.888 66.2934 122.888C67.264 122.888 67.992 123.149 68.4774 123.672C68.972 124.185 69.2194 124.871 69.2194 125.73V130H68.1694L68.0994 128.754C67.9034 129.146 67.614 129.482 67.2314 129.762C66.858 130.033 66.354 130.168 65.7194 130.168ZM65.9014 129.174C66.3494 129.174 66.732 129.057 67.0494 128.824C67.376 128.591 67.6234 128.287 67.7914 127.914C67.9594 127.541 68.0434 127.149 68.0434 126.738V126.724H66.2654C65.5747 126.724 65.0847 126.845 64.7954 127.088C64.5154 127.321 64.3754 127.615 64.3754 127.97C64.3754 128.334 64.506 128.628 64.7674 128.852C65.038 129.067 65.416 129.174 65.9014 129.174ZM73.7276 127.816C73.3356 127.816 72.9762 127.765 72.6496 127.662L71.9496 128.32C72.0522 128.395 72.1782 128.46 72.3276 128.516C72.4862 128.563 72.7102 128.609 72.9996 128.656C73.2889 128.693 73.6949 128.735 74.2176 128.782C75.1509 128.847 75.8182 129.062 76.2196 129.426C76.6209 129.79 76.8216 130.266 76.8216 130.854C76.8216 131.255 76.7096 131.638 76.4856 132.002C76.2709 132.366 75.9349 132.665 75.4776 132.898C75.0296 133.131 74.4509 133.248 73.7416 133.248C73.1162 133.248 72.5609 133.164 72.0756 132.996C71.5902 132.837 71.2122 132.59 70.9416 132.254C70.6709 131.927 70.5356 131.512 70.5356 131.008C70.5356 130.747 70.6056 130.462 70.7456 130.154C70.8856 129.855 71.1469 129.571 71.5296 129.3C71.3242 129.216 71.1469 129.127 70.9976 129.034C70.8576 128.931 70.7269 128.819 70.6056 128.698V128.376L71.7956 127.2C71.2449 126.733 70.9696 126.117 70.9696 125.352C70.9696 124.895 71.0769 124.479 71.2916 124.106C71.5062 123.733 71.8189 123.439 72.2296 123.224C72.6402 123 73.1396 122.888 73.7276 122.888C74.1289 122.888 74.4929 122.944 74.8196 123.056H77.3816V123.938L76.0796 123.994C76.3502 124.386 76.4856 124.839 76.4856 125.352C76.4856 125.809 76.3736 126.225 76.1496 126.598C75.9349 126.971 75.6222 127.27 75.2116 127.494C74.8102 127.709 74.3156 127.816 73.7276 127.816ZM73.7276 126.85C74.2222 126.85 74.6142 126.724 74.9036 126.472C75.2022 126.211 75.3516 125.837 75.3516 125.352C75.3516 124.876 75.2022 124.512 74.9036 124.26C74.6142 123.999 74.2222 123.868 73.7276 123.868C73.2236 123.868 72.8222 123.999 72.5236 124.26C72.2342 124.512 72.0896 124.876 72.0896 125.352C72.0896 125.837 72.2342 126.211 72.5236 126.472C72.8222 126.724 73.2236 126.85 73.7276 126.85ZM71.6836 130.896C71.6836 131.363 71.8796 131.708 72.2716 131.932C72.6636 132.165 73.1536 132.282 73.7416 132.282C74.3202 132.282 74.7822 132.156 75.1276 131.904C75.4822 131.652 75.6596 131.316 75.6596 130.896C75.6596 130.597 75.5382 130.336 75.2956 130.112C75.0529 129.897 74.6049 129.771 73.9516 129.734C73.4382 129.697 72.9949 129.65 72.6216 129.594C72.2389 129.799 71.9869 130.019 71.8656 130.252C71.7442 130.495 71.6836 130.709 71.6836 130.896ZM81.5988 130.168C80.9454 130.168 80.3574 130.019 79.8348 129.72C79.3121 129.421 78.8968 129.001 78.5888 128.46C78.2901 127.909 78.1408 127.265 78.1408 126.528C78.1408 125.791 78.2948 125.151 78.6028 124.61C78.9108 124.059 79.3261 123.635 79.8488 123.336C80.3808 123.037 80.9734 122.888 81.6268 122.888C82.2801 122.888 82.8681 123.037 83.3908 123.336C83.9134 123.635 84.3241 124.059 84.6228 124.61C84.9308 125.151 85.0848 125.791 85.0848 126.528C85.0848 127.265 84.9308 127.909 84.6228 128.46C84.3148 129.001 83.8948 129.421 83.3628 129.72C82.8401 130.019 82.2521 130.168 81.5988 130.168ZM81.5988 129.16C82.0001 129.16 82.3734 129.062 82.7188 128.866C83.0641 128.67 83.3441 128.376 83.5588 127.984C83.7734 127.592 83.8808 127.107 83.8808 126.528C83.8808 125.949 83.7734 125.464 83.5588 125.072C83.3534 124.68 83.0781 124.386 82.7328 124.19C82.3874 123.994 82.0188 123.896 81.6268 123.896C81.2254 123.896 80.8521 123.994 80.5068 124.19C80.1614 124.386 79.8814 124.68 79.6668 125.072C79.4521 125.464 79.3448 125.949 79.3448 126.528C79.3448 127.107 79.4521 127.592 79.6668 127.984C79.8814 128.376 80.1568 128.67 80.4928 128.866C80.8381 129.062 81.2068 129.16 81.5988 129.16ZM93.449 130L89.767 120.2H91.041L94.135 128.754L97.257 120.2H98.503L94.821 130H93.449ZM101.307 130.168C100.729 130.168 100.248 130.07 99.8653 129.874C99.4826 129.678 99.1979 129.417 99.0113 129.09C98.8246 128.763 98.7313 128.409 98.7313 128.026C98.7313 127.317 99.0019 126.771 99.5433 126.388C100.085 126.005 100.822 125.814 101.755 125.814H103.631V125.73C103.631 125.123 103.473 124.666 103.155 124.358C102.838 124.041 102.413 123.882 101.881 123.882C101.424 123.882 101.027 123.999 100.691 124.232C100.365 124.456 100.159 124.787 100.075 125.226H98.8713C98.9179 124.722 99.0859 124.297 99.3753 123.952C99.6739 123.607 100.043 123.345 100.481 123.168C100.92 122.981 101.387 122.888 101.881 122.888C102.852 122.888 103.58 123.149 104.065 123.672C104.56 124.185 104.807 124.871 104.807 125.73V130H103.757L103.687 128.754C103.491 129.146 103.202 129.482 102.819 129.762C102.446 130.033 101.942 130.168 101.307 130.168ZM101.489 129.174C101.937 129.174 102.32 129.057 102.637 128.824C102.964 128.591 103.211 128.287 103.379 127.914C103.547 127.541 103.631 127.149 103.631 126.738V126.724H101.853C101.163 126.724 100.673 126.845 100.383 127.088C100.103 127.321 99.9633 127.615 99.9633 127.97C99.9633 128.334 100.094 128.628 100.355 128.852C100.626 129.067 101.004 129.174 101.489 129.174ZM106.571 130V119.92H107.747V130H106.571ZM112.797 130.168C112.134 130.168 111.546 130.019 111.033 129.72C110.52 129.412 110.114 128.987 109.815 128.446C109.526 127.905 109.381 127.265 109.381 126.528C109.381 125.8 109.526 125.165 109.815 124.624C110.104 124.073 110.506 123.649 111.019 123.35C111.542 123.042 112.144 122.888 112.825 122.888C113.497 122.888 114.076 123.042 114.561 123.35C115.056 123.649 115.434 124.045 115.695 124.54C115.956 125.035 116.087 125.567 116.087 126.136C116.087 126.239 116.082 126.341 116.073 126.444C116.073 126.547 116.073 126.663 116.073 126.794H110.543C110.571 127.326 110.692 127.769 110.907 128.124C111.131 128.469 111.406 128.731 111.733 128.908C112.069 129.085 112.424 129.174 112.797 129.174C113.282 129.174 113.688 129.062 114.015 128.838C114.342 128.614 114.58 128.311 114.729 127.928H115.891C115.704 128.572 115.345 129.109 114.813 129.538C114.29 129.958 113.618 130.168 112.797 130.168ZM112.797 123.882C112.237 123.882 111.738 124.055 111.299 124.4C110.87 124.736 110.622 125.231 110.557 125.884H114.925C114.897 125.259 114.682 124.769 114.281 124.414C113.88 124.059 113.385 123.882 112.797 123.882ZM117.646 130V123.056H118.71L118.78 124.302C119.004 123.863 119.326 123.518 119.746 123.266C120.166 123.014 120.642 122.888 121.174 122.888C121.995 122.888 122.648 123.14 123.134 123.644C123.628 124.139 123.876 124.904 123.876 125.94V130H122.7V126.066C122.7 124.619 122.102 123.896 120.908 123.896C120.31 123.896 119.811 124.115 119.41 124.554C119.018 124.983 118.822 125.599 118.822 126.402V130H117.646ZM128.401 130C127.767 130 127.267 129.846 126.903 129.538C126.539 129.23 126.357 128.675 126.357 127.872V124.05H125.153V123.056H126.357L126.511 121.39H127.533V123.056H129.577V124.05H127.533V127.872C127.533 128.311 127.622 128.609 127.799 128.768C127.977 128.917 128.289 128.992 128.737 128.992H129.465V130H128.401ZM131.071 130V123.056H132.247V130H131.071ZM131.337 122.482V121.6L134.277 119.822V120.844L131.337 122.482ZM134.175 130V123.056H135.239L135.309 124.302C135.533 123.863 135.855 123.518 136.275 123.266C136.695 123.014 137.171 122.888 137.703 122.888C138.524 122.888 139.178 123.14 139.663 123.644C140.158 124.139 140.405 124.904 140.405 125.94V130H139.229V126.066C139.229 124.619 138.632 123.896 137.437 123.896C136.84 123.896 136.34 124.115 135.939 124.554C135.547 124.983 135.351 125.599 135.351 126.402V130H134.175Z" fill="white"/>
<path fill-rule="evenodd" clip-rule="evenodd" d="M414 44.9996C414 48.6476 412.605 52.1006 410.071 54.7246C409.688 55.1216 409.054 55.1326 408.657 54.7496C408.454 54.5536 408.352 54.2916 408.352 54.0306C408.352 53.7806 408.445 53.5296 408.633 53.3356C410.804 51.0856 412 48.1256 412 44.9996C412 41.8736 410.804 38.9136 408.633 36.6636C408.248 36.2686 408.259 35.6346 408.657 35.2496C409.054 34.8676 409.688 34.8776 410.071 35.2756C412.605 37.8996 414 41.3526 414 44.9996ZM409 45C409 42.572 407.999 40.212 406.252 38.525C405.854 38.143 405.221 38.153 404.838 38.551C404.454 38.947 404.465 39.582 404.862 39.965C406.221 41.276 407 43.111 407 45C407 46.889 406.221 48.724 404.862 50.035C404.659 50.231 404.557 50.493 404.557 50.755C404.557 51.005 404.65 51.256 404.838 51.449C405.221 51.847 405.854 51.857 406.252 51.475C407.999 49.788 409 47.428 409 45ZM402.597 41.527C403.501 42.464 404 43.697 404 45C404 46.303 403.501 47.536 402.597 48.473C402.213 48.87 401.58 48.881 401.183 48.498C400.979 48.302 400.877 48.04 400.877 47.778C400.877 47.528 400.971 47.277 401.158 47.084C402.244 45.959 402.244 44.041 401.158 42.916C400.774 42.521 400.785 41.887 401.183 41.502C401.58 41.119 402.213 41.13 402.597 41.527ZM399 44C399.552 44 400 44.447 400 45C400 45.553 399.552 46 399 46C398.448 46 398 45.553 398 45C398 44.447 398.448 44 399 44Z" fill="white"/>
<path d="M38.426 52.264C36.9007 52.264 35.5807 51.934 34.466 51.274C33.366 50.5993 32.5153 49.668 31.914 48.48C31.3127 47.2773 31.012 45.8913 31.012 44.322C31.012 42.738 31.3127 41.352 31.914 40.164C32.5153 38.9613 33.366 38.0227 34.466 37.348C35.5807 36.6733 36.9007 36.336 38.426 36.336C40.23 36.336 41.704 36.776 42.848 37.656C43.992 38.536 44.718 39.768 45.026 41.352H42.43C42.2247 40.4573 41.7847 39.746 41.11 39.218C40.4353 38.69 39.5333 38.426 38.404 38.426C36.864 38.426 35.6467 38.954 34.752 40.01C33.8573 41.0513 33.41 42.4887 33.41 44.322C33.41 46.1407 33.8573 47.5707 34.752 48.612C35.6467 49.6533 36.864 50.174 38.404 50.174C39.5333 50.174 40.4353 49.9247 41.11 49.426C41.7847 48.9273 42.2247 48.2453 42.43 47.38H45.026C44.718 48.9053 43.992 50.1007 42.848 50.966C41.704 51.8313 40.23 52.264 38.426 52.264ZM47.5013 52V41.088H49.5913L49.7893 43.156C50.1707 42.4373 50.6987 41.8727 51.3733 41.462C52.0627 41.0367 52.8913 40.824 53.8593 40.824V43.266H53.2213C52.576 43.266 51.9967 43.376 51.4833 43.596C50.9847 43.8013 50.5813 44.1607 50.2733 44.674C49.98 45.1727 49.8333 45.8693 49.8333 46.764V52H47.5013ZM59.5548 52.264C58.6308 52.264 57.8681 52.11 57.2668 51.802C56.6654 51.494 56.2181 51.0907 55.9248 50.592C55.6314 50.0787 55.4848 49.5213 55.4848 48.92C55.4848 47.864 55.8954 47.028 56.7168 46.412C57.5381 45.796 58.7114 45.488 60.2368 45.488H63.0968V45.29C63.0968 44.4393 62.8621 43.8013 62.3928 43.376C61.9381 42.9507 61.3441 42.738 60.6108 42.738C59.9654 42.738 59.4008 42.8993 58.9168 43.222C58.4474 43.53 58.1614 43.992 58.0588 44.608H55.7268C55.8001 43.816 56.0641 43.1413 56.5188 42.584C56.9881 42.012 57.5748 41.5793 58.2788 41.286C58.9974 40.978 59.7821 40.824 60.6328 40.824C62.1581 40.824 63.3388 41.2273 64.1748 42.034C65.0108 42.826 65.4288 43.9113 65.4288 45.29V52H63.4048L63.2068 50.13C62.8988 50.7313 62.4514 51.2373 61.8648 51.648C61.2781 52.0587 60.5081 52.264 59.5548 52.264ZM60.0168 50.372C60.6474 50.372 61.1754 50.2253 61.6008 49.932C62.0408 49.624 62.3781 49.2207 62.6128 48.722C62.8621 48.2233 63.0161 47.6733 63.0748 47.072H60.4788C59.5548 47.072 58.8948 47.2333 58.4988 47.556C58.1174 47.8787 57.9268 48.282 57.9268 48.766C57.9268 49.2647 58.1101 49.6607 58.4768 49.954C58.8581 50.2327 59.3714 50.372 60.0168 50.372ZM68.6978 52V43.046H67.1358V41.088H68.6978V39.504C68.6978 38.316 68.9912 37.4653 69.5778 36.952C70.1792 36.424 71.0225 36.16 72.1078 36.16H73.2518V38.14H72.4598C71.9465 38.14 71.5798 38.25 71.3598 38.47C71.1398 38.6753 71.0298 39.0273 71.0298 39.526V41.088H73.5378V43.046H71.0298V52H68.6978ZM80.3293 52C79.2586 52 78.408 51.7433 77.7773 51.23C77.1466 50.702 76.8313 49.7707 76.8313 48.436V43.046H74.9613V41.088H76.8313L77.1173 38.316H79.1633V41.088H82.2433V43.046H79.1633V48.436C79.1633 49.0373 79.288 49.4553 79.5373 49.69C79.8013 49.91 80.2486 50.02 80.8793 50.02H82.1333V52H80.3293ZM86.8258 52L83.6138 41.088H85.9458L88.0578 49.316L90.4338 41.088H93.0298L95.4058 49.316L97.5178 41.088H99.8498L96.6378 52H94.2398L91.7318 43.42L89.2238 52H86.8258ZM106.467 52.264C105.425 52.264 104.487 52.0293 103.651 51.56C102.829 51.076 102.177 50.4087 101.693 49.558C101.209 48.6927 100.967 47.688 100.967 46.544C100.967 45.4 101.209 44.4027 101.693 43.552C102.191 42.6867 102.859 42.0193 103.695 41.55C104.531 41.066 105.462 40.824 106.489 40.824C107.53 40.824 108.461 41.066 109.283 41.55C110.119 42.0193 110.779 42.6867 111.263 43.552C111.761 44.4027 112.011 45.4 112.011 46.544C112.011 47.688 111.761 48.6927 111.263 49.558C110.779 50.4087 110.119 51.076 109.283 51.56C108.447 52.0293 107.508 52.264 106.467 52.264ZM106.467 50.262C107.024 50.262 107.537 50.1227 108.007 49.844C108.491 49.5653 108.879 49.1547 109.173 48.612C109.466 48.0547 109.613 47.3653 109.613 46.544C109.613 45.7227 109.466 45.0407 109.173 44.498C108.894 43.9407 108.513 43.5227 108.029 43.244C107.559 42.9653 107.046 42.826 106.489 42.826C105.931 42.826 105.411 42.9653 104.927 43.244C104.457 43.5227 104.076 43.9407 103.783 44.498C103.489 45.0407 103.343 45.7227 103.343 46.544C103.343 47.3653 103.489 48.0547 103.783 48.612C104.076 49.1547 104.457 49.5653 104.927 49.844C105.396 50.1227 105.909 50.262 106.467 50.262ZM114.533 52V41.088H116.623L116.821 43.156C117.202 42.4373 117.73 41.8727 118.405 41.462C119.094 41.0367 119.923 40.824 120.891 40.824V43.266H120.253C119.607 43.266 119.028 43.376 118.515 43.596C118.016 43.8013 117.613 44.1607 117.305 44.674C117.011 45.1727 116.865 45.8693 116.865 46.764V52H114.533ZM122.89 52V36.16H125.222V45.598L129.402 41.088H132.196L127.554 46.038L132.878 52H129.93L125.222 46.412V52H122.89ZM134.773 52V36.6H140.581C142.18 36.6 143.39 36.974 144.211 37.722C145.032 38.47 145.443 39.4087 145.443 40.538C145.443 41.5207 145.179 42.3053 144.651 42.892C144.123 43.464 143.485 43.8527 142.737 44.058C143.324 44.1753 143.844 44.41 144.299 44.762C144.768 45.114 145.135 45.554 145.399 46.082C145.663 46.61 145.795 47.182 145.795 47.798C145.795 48.59 145.597 49.3087 145.201 49.954C144.82 50.5847 144.255 51.0833 143.507 51.45C142.759 51.8167 141.842 52 140.757 52H134.773ZM137.105 43.2H140.295C141.19 43.2 141.872 42.9947 142.341 42.584C142.81 42.1587 143.045 41.5793 143.045 40.846C143.045 40.1273 142.81 39.5553 142.341 39.13C141.886 38.7047 141.19 38.492 140.251 38.492H137.105V43.2ZM137.105 50.086H140.449C141.388 50.086 142.114 49.866 142.627 49.426C143.155 48.986 143.419 48.37 143.419 47.578C143.419 46.786 143.148 46.1627 142.605 45.708C142.062 45.2387 141.329 45.004 140.405 45.004H137.105V50.086ZM151.959 52.264C151.035 52.264 150.272 52.11 149.671 51.802C149.07 51.494 148.622 51.0907 148.329 50.592C148.036 50.0787 147.889 49.5213 147.889 48.92C147.889 47.864 148.3 47.028 149.121 46.412C149.942 45.796 151.116 45.488 152.641 45.488H155.501V45.29C155.501 44.4393 155.266 43.8013 154.797 43.376C154.342 42.9507 153.748 42.738 153.015 42.738C152.37 42.738 151.805 42.8993 151.321 43.222C150.852 43.53 150.566 43.992 150.463 44.608H148.131C148.204 43.816 148.468 43.1413 148.923 42.584C149.392 42.012 149.979 41.5793 150.683 41.286C151.402 40.978 152.186 40.824 153.037 40.824C154.562 40.824 155.743 41.2273 156.579 42.034C157.415 42.826 157.833 43.9113 157.833 45.29V52H155.809L155.611 50.13C155.303 50.7313 154.856 51.2373 154.269 51.648C153.682 52.0587 152.912 52.264 151.959 52.264ZM152.421 50.372C153.052 50.372 153.58 50.2253 154.005 49.932C154.445 49.624 154.782 49.2207 155.017 48.722C155.266 48.2233 155.42 47.6733 155.479 47.072H152.883C151.959 47.072 151.299 47.2333 150.903 47.556C150.522 47.8787 150.331 48.282 150.331 48.766C150.331 49.2647 150.514 49.6607 150.881 49.954C151.262 50.2327 151.776 50.372 152.421 50.372ZM160.552 52V41.088H162.62L162.796 43.002C163.133 42.3273 163.625 41.7993 164.27 41.418C164.93 41.022 165.685 40.824 166.536 40.824C167.856 40.824 168.89 41.2347 169.638 42.056C170.401 42.8773 170.782 44.102 170.782 45.73V52H168.472V45.972C168.472 43.86 167.607 42.804 165.876 42.804C165.011 42.804 164.292 43.112 163.72 43.728C163.163 44.344 162.884 45.224 162.884 46.368V52H160.552ZM173.529 52V36.16H175.861V45.598L180.041 41.088H182.835L178.193 46.038L183.517 52H180.569L175.861 46.412V52H173.529Z" fill="white"/>
</svg>
