<svg width="448" height="260" viewBox="0 0 448 260" fill="none" xmlns="http://www.w3.org/2000/svg">
<rect width="448" height="260" rx="10" fill="#4339F2"/>
<path fill-rule="evenodd" clip-rule="evenodd" d="M304.134 225.81H313.836V208.376H304.134V225.81Z" fill="#FF3A29"/>
<path fill-rule="evenodd" clip-rule="evenodd" d="M304.75 217.093C304.75 213.556 306.406 210.406 308.985 208.376C307.099 206.891 304.72 206.005 302.133 206.005C296.01 206.005 291.046 210.969 291.046 217.093C291.046 223.217 296.01 228.181 302.133 228.181C304.72 228.181 307.099 227.295 308.985 225.81C306.406 223.78 304.75 220.63 304.75 217.093Z" fill="#FF3A29"/>
<path fill-rule="evenodd" clip-rule="evenodd" d="M326.579 223.964V223.533H326.466L326.337 223.829L326.208 223.533H326.095V223.964H326.175V223.639L326.296 223.919H326.378L326.499 223.638V223.964H326.579ZM325.867 223.964V223.607H326.011V223.534H325.644V223.607H325.788V223.964H325.867ZM326.925 217.093C326.925 223.217 321.961 228.181 315.838 228.181C313.251 228.181 310.872 227.295 308.985 225.81C311.564 223.78 313.22 220.63 313.22 217.093C313.22 213.556 311.564 210.406 308.985 208.376C310.872 206.891 313.251 206.005 315.838 206.005C321.961 206.005 326.925 210.969 326.925 217.093Z" fill="#FFB200"/>
<path fill-rule="evenodd" clip-rule="evenodd" d="M349.07 217.141C349.07 215.845 349.918 214.781 351.307 214.781C352.633 214.781 353.528 215.799 353.528 217.141C353.528 218.483 352.633 219.501 351.307 219.501C349.918 219.501 349.07 218.437 349.07 217.141ZM355.04 217.141V213.454H353.435V214.349C352.926 213.686 352.155 213.269 351.106 213.269C349.039 213.269 347.419 214.889 347.419 217.141C347.419 219.393 349.039 221.013 351.106 221.013C352.155 221.013 352.926 220.597 353.435 219.933V220.828H355.04V217.141ZM409.219 217.141C409.219 215.845 410.067 214.781 411.455 214.781C412.782 214.781 413.677 215.799 413.677 217.141C413.677 218.483 412.782 219.501 411.455 219.501C410.067 219.501 409.219 218.437 409.219 217.141ZM416.984 220.478V220.594H417.09C417.114 220.594 417.134 220.589 417.149 220.579C417.163 220.57 417.17 220.555 417.17 220.535C417.17 220.516 417.163 220.502 417.149 220.492C417.134 220.483 417.114 220.478 417.09 220.478H416.984ZM417.091 220.397C417.147 220.397 417.19 220.409 417.22 220.434C417.251 220.459 417.266 220.493 417.266 220.535C417.266 220.571 417.254 220.601 417.229 220.624C417.205 220.648 417.171 220.662 417.127 220.667L417.269 220.831H417.158L417.026 220.669H416.984V220.831H416.891V220.397H417.091ZM417.064 220.981C417.114 220.981 417.161 220.971 417.205 220.952C417.248 220.932 417.287 220.907 417.32 220.874C417.353 220.841 417.378 220.802 417.397 220.758C417.416 220.713 417.425 220.666 417.425 220.616C417.425 220.565 417.416 220.518 417.397 220.474C417.378 220.429 417.353 220.39 417.32 220.357C417.287 220.325 417.248 220.299 417.205 220.28C417.161 220.261 417.114 220.252 417.064 220.252C417.012 220.252 416.964 220.261 416.92 220.28C416.875 220.299 416.836 220.325 416.803 220.357C416.77 220.39 416.745 220.429 416.726 220.474C416.707 220.518 416.698 220.565 416.698 220.616C416.698 220.666 416.707 220.713 416.726 220.758C416.745 220.802 416.77 220.841 416.803 220.874C416.836 220.907 416.875 220.932 416.92 220.952C416.964 220.971 417.012 220.981 417.064 220.981ZM417.064 220.148C417.13 220.148 417.191 220.16 417.249 220.184C417.307 220.209 417.357 220.242 417.4 220.285C417.443 220.327 417.478 220.377 417.503 220.434C417.527 220.491 417.54 220.551 417.54 220.616C417.54 220.68 417.527 220.74 417.503 220.797C417.478 220.853 417.443 220.903 417.4 220.945C417.357 220.988 417.307 221.021 417.249 221.046C417.191 221.071 417.13 221.084 417.064 221.084C416.996 221.084 416.934 221.071 416.875 221.046C416.817 221.021 416.766 220.988 416.723 220.945C416.68 220.903 416.646 220.853 416.622 220.797C416.597 220.74 416.584 220.68 416.584 220.616C416.584 220.551 416.597 220.491 416.622 220.434C416.646 220.377 416.68 220.327 416.723 220.285C416.766 220.242 416.817 220.209 416.875 220.184C416.934 220.16 416.996 220.148 417.064 220.148ZM415.189 217.141V210.492H413.584V214.349C413.075 213.686 412.304 213.269 411.255 213.269C409.188 213.269 407.568 214.889 407.568 217.141C407.568 219.393 409.188 221.013 411.255 221.013C412.304 221.013 413.075 220.597 413.584 219.933V220.828H415.189V217.141ZM374.94 214.704C375.974 214.704 376.637 215.352 376.807 216.493H372.981C373.151 215.429 373.799 214.704 374.94 214.704ZM374.971 213.269C372.811 213.269 371.3 214.842 371.3 217.141C371.3 219.486 372.873 221.013 375.079 221.013C376.19 221.013 377.208 220.736 378.103 219.98L377.316 218.792C376.699 219.285 375.912 219.563 375.172 219.563C374.138 219.563 373.197 219.085 372.966 217.758H378.442C378.458 217.558 378.473 217.357 378.473 217.141C378.458 214.842 377.038 213.269 374.971 213.269ZM394.332 217.141C394.332 215.845 395.18 214.781 396.569 214.781C397.895 214.781 398.79 215.799 398.79 217.141C398.79 218.483 397.895 219.501 396.569 219.501C395.18 219.501 394.332 218.437 394.332 217.141ZM400.302 217.141V213.454H398.698V214.349C398.188 213.686 397.417 213.269 396.368 213.269C394.301 213.269 392.681 214.889 392.681 217.141C392.681 219.393 394.301 221.013 396.368 221.013C397.417 221.013 398.188 220.597 398.698 219.933V220.828H400.302V217.141ZM385.276 217.141C385.276 219.378 386.834 221.013 389.21 221.013C390.321 221.013 391.061 220.766 391.863 220.134L391.092 218.838C390.491 219.27 389.858 219.501 389.164 219.501C387.883 219.486 386.942 218.56 386.942 217.141C386.942 215.722 387.883 214.796 389.164 214.781C389.858 214.781 390.491 215.012 391.092 215.444L391.863 214.148C391.061 213.516 390.321 213.269 389.21 213.269C386.834 213.269 385.276 214.904 385.276 217.141ZM405.948 213.269C405.022 213.269 404.421 213.701 404.004 214.349V213.454H402.415V220.828H404.019V216.694C404.019 215.475 404.544 214.796 405.593 214.796C405.917 214.796 406.257 214.842 406.596 214.981L407.09 213.47C406.735 213.331 406.272 213.269 405.948 213.269ZM362.969 214.04C362.198 213.531 361.133 213.269 359.961 213.269C358.094 213.269 356.891 214.164 356.891 215.629C356.891 216.833 357.786 217.573 359.436 217.804L360.192 217.913C361.072 218.036 361.488 218.267 361.488 218.684C361.488 219.255 360.902 219.578 359.807 219.578C358.696 219.578 357.894 219.224 357.354 218.807L356.598 220.057C357.477 220.705 358.588 221.013 359.791 221.013C361.92 221.013 363.154 220.01 363.154 218.607C363.154 217.311 362.182 216.632 360.578 216.401L359.822 216.293C359.128 216.2 358.573 216.061 358.573 215.568C358.573 215.028 359.097 214.704 359.976 214.704C360.917 214.704 361.827 215.059 362.275 215.336L362.969 214.04ZM383.656 213.269C382.731 213.269 382.129 213.701 381.713 214.349V213.454H380.124V220.828H381.728V216.694C381.728 215.475 382.253 214.796 383.302 214.796C383.626 214.796 383.965 214.842 384.304 214.981L384.798 213.47C384.443 213.331 383.98 213.269 383.656 213.269ZM369.973 213.454H367.35V211.217H365.73V213.454H364.234V214.92H365.73V218.283C365.73 219.995 366.394 221.013 368.291 221.013C368.985 221.013 369.788 220.797 370.297 220.442L369.834 219.069C369.356 219.347 368.831 219.486 368.415 219.486C367.612 219.486 367.35 218.992 367.35 218.252V214.92H369.973V213.454ZM346 220.828V216.2C346 214.457 344.889 213.285 343.1 213.269C342.159 213.254 341.187 213.547 340.508 214.58C339.999 213.763 339.196 213.269 338.07 213.269C337.284 213.269 336.512 213.5 335.911 214.364V213.454H334.306V220.828H335.926V216.74C335.926 215.46 336.636 214.781 337.731 214.781C338.795 214.781 339.335 215.475 339.335 216.725V220.828H340.955V216.74C340.955 215.46 341.696 214.781 342.76 214.781C343.855 214.781 344.38 215.475 344.38 216.725V220.828H346Z" fill="white"/>
<path d="M36.94 224.24C35.7 224.24 34.6267 223.94 33.72 223.34C32.8267 222.727 32.14 221.88 31.66 220.8C31.18 219.707 30.94 218.44 30.94 217C30.94 215.56 31.18 214.3 31.66 213.22C32.14 212.127 32.8267 211.28 33.72 210.68C34.6267 210.067 35.7 209.76 36.94 209.76C38.18 209.76 39.2467 210.067 40.14 210.68C41.0333 211.28 41.72 212.127 42.2 213.22C42.68 214.3 42.92 215.56 42.92 217C42.92 218.44 42.68 219.707 42.2 220.8C41.72 221.88 41.0333 222.727 40.14 223.34C39.2467 223.94 38.18 224.24 36.94 224.24ZM36.94 222.76C37.7533 222.76 38.48 222.533 39.12 222.08C39.7733 221.613 40.28 220.953 40.64 220.1C41.0133 219.233 41.2 218.2 41.2 217C41.2 215.8 41.0133 214.773 40.64 213.92C40.28 213.067 39.7733 212.413 39.12 211.96C38.48 211.493 37.7533 211.26 36.94 211.26C36.1133 211.26 35.38 211.493 34.74 211.96C34.1 212.413 33.5933 213.067 33.22 213.92C32.8467 214.773 32.66 215.8 32.66 217C32.66 218.2 32.8467 219.233 33.22 220.1C33.5933 220.953 34.1 221.613 34.74 222.08C35.38 222.533 36.1133 222.76 36.94 222.76ZM51.6872 224V221H44.5872V219.7L51.3872 210H53.3472V219.52H55.4272V221H53.3472V224H51.6872ZM46.4472 219.52H51.7672V211.86L46.4472 219.52ZM61.8295 225.9L66.8495 208.72H68.5095L63.4895 225.9H61.8295ZM75.635 224V222.82C76.5817 222.073 77.475 221.32 78.315 220.56C79.1683 219.787 79.9217 219.027 80.575 218.28C81.2417 217.533 81.7617 216.8 82.135 216.08C82.5217 215.36 82.715 214.667 82.715 214C82.715 213.507 82.6283 213.047 82.455 212.62C82.295 212.193 82.0283 211.853 81.655 211.6C81.2817 211.333 80.775 211.2 80.135 211.2C79.5217 211.2 79.0083 211.34 78.595 211.62C78.1817 211.887 77.8683 212.247 77.655 212.7C77.455 213.153 77.355 213.64 77.355 214.16H75.735C75.735 213.24 75.9283 212.453 76.315 211.8C76.7017 211.133 77.2283 210.627 77.895 210.28C78.5617 209.933 79.315 209.76 80.155 209.76C81.395 209.76 82.4083 210.113 83.195 210.82C83.995 211.513 84.395 212.553 84.395 213.94C84.395 214.767 84.1883 215.587 83.775 216.4C83.3617 217.2 82.835 217.98 82.195 218.74C81.555 219.487 80.8683 220.187 80.135 220.84C79.415 221.493 78.7417 222.08 78.115 222.6H84.875V224H75.635ZM91.6603 224.24C90.767 224.24 89.9603 224.08 89.2403 223.76C88.5203 223.427 87.9403 222.933 87.5003 222.28C87.0736 221.627 86.847 220.813 86.8203 219.84H88.5203C88.5336 220.64 88.8136 221.333 89.3603 221.92C89.907 222.493 90.6736 222.78 91.6603 222.78C92.647 222.78 93.387 222.507 93.8803 221.96C94.387 221.413 94.6403 220.753 94.6403 219.98C94.6403 219.327 94.4803 218.793 94.1603 218.38C93.8536 217.967 93.4336 217.66 92.9003 217.46C92.3803 217.26 91.807 217.16 91.1803 217.16H90.1403V215.74H91.1803C92.087 215.74 92.7936 215.533 93.3003 215.12C93.8203 214.707 94.0803 214.127 94.0803 213.38C94.0803 212.753 93.8736 212.24 93.4603 211.84C93.0603 211.427 92.4603 211.22 91.6603 211.22C90.887 211.22 90.267 211.453 89.8003 211.92C89.3336 212.373 89.0736 212.947 89.0203 213.64H87.3203C87.3603 212.88 87.5603 212.207 87.9203 211.62C88.2936 211.033 88.8003 210.58 89.4403 210.26C90.0803 209.927 90.8203 209.76 91.6603 209.76C92.567 209.76 93.3203 209.92 93.9203 210.24C94.5336 210.56 94.9936 210.987 95.3003 211.52C95.6203 212.053 95.7803 212.64 95.7803 213.28C95.7803 213.987 95.587 214.633 95.2003 215.22C94.8136 215.793 94.2336 216.18 93.4603 216.38C94.287 216.553 94.9736 216.947 95.5203 217.56C96.067 218.173 96.3403 218.98 96.3403 219.98C96.3403 220.753 96.1603 221.467 95.8003 222.12C95.4536 222.76 94.9336 223.273 94.2403 223.66C93.547 224.047 92.687 224.24 91.6603 224.24Z" fill="white"/>
<path d="M38.58 167V163.92H30.858V162.072L38.206 151.6H40.89V161.896H43.046V163.92H40.89V167H38.58ZM33.388 161.896H38.712V154.174L33.388 161.896ZM50.637 167.264C49.5517 167.264 48.613 167.073 47.821 166.692C47.029 166.296 46.3984 165.761 45.929 165.086C45.4744 164.397 45.1957 163.619 45.093 162.754H47.381C47.5277 163.487 47.8944 164.096 48.481 164.58C49.0677 165.049 49.7937 165.284 50.659 165.284C51.3044 165.284 51.8617 165.13 52.331 164.822C52.8004 164.499 53.167 164.074 53.431 163.546C53.695 163.018 53.827 162.424 53.827 161.764C53.827 160.723 53.5337 159.894 52.947 159.278C52.3604 158.647 51.6197 158.332 50.725 158.332C49.9624 158.332 49.3097 158.515 48.767 158.882C48.2244 159.234 47.8284 159.681 47.579 160.224H45.357L46.677 151.6H54.993V153.646H48.437L47.645 157.76C47.9824 157.379 48.4444 157.063 49.031 156.814C49.6324 156.55 50.307 156.418 51.055 156.418C52.0964 156.418 52.991 156.66 53.739 157.144C54.487 157.613 55.059 158.251 55.455 159.058C55.8657 159.865 56.071 160.759 56.071 161.742C56.071 162.769 55.851 163.7 55.411 164.536C54.971 165.372 54.3404 166.039 53.519 166.538C52.7124 167.022 51.7517 167.264 50.637 167.264ZM64.4797 167.264C63.3503 167.264 62.397 167.051 61.6197 166.626C60.8423 166.201 60.2117 165.636 59.7277 164.932C59.2583 164.228 58.921 163.436 58.7157 162.556C58.5103 161.676 58.4077 160.774 58.4077 159.85C58.4077 158.149 58.6423 156.66 59.1117 155.384C59.5957 154.108 60.285 153.118 61.1797 152.414C62.0743 151.695 63.1597 151.336 64.4357 151.336C65.4477 151.336 66.313 151.534 67.0317 151.93C67.7503 152.326 68.3077 152.854 68.7037 153.514C69.1143 154.174 69.3637 154.893 69.4517 155.67H67.2737C67.1417 154.907 66.8263 154.321 66.3277 153.91C65.829 153.499 65.191 153.294 64.4137 153.294C63.343 153.294 62.4557 153.8 61.7517 154.812C61.0623 155.809 60.6957 157.349 60.6517 159.432C61.0037 158.787 61.5463 158.237 62.2797 157.782C63.0277 157.327 63.8857 157.1 64.8537 157.1C65.719 157.1 66.5257 157.305 67.2737 157.716C68.0363 158.127 68.6523 158.706 69.1217 159.454C69.6057 160.187 69.8477 161.06 69.8477 162.072C69.8477 162.967 69.6277 163.81 69.1877 164.602C68.7477 165.394 68.1243 166.039 67.3177 166.538C66.5257 167.022 65.5797 167.264 64.4797 167.264ZM64.3477 165.24C64.9637 165.24 65.5137 165.108 65.9977 164.844C66.4817 164.58 66.863 164.221 67.1417 163.766C67.4203 163.297 67.5597 162.769 67.5597 162.182C67.5597 161.243 67.2517 160.495 66.6357 159.938C66.0343 159.381 65.2643 159.102 64.3257 159.102C63.7097 159.102 63.1523 159.241 62.6537 159.52C62.1697 159.799 61.7883 160.173 61.5097 160.642C61.231 161.097 61.0917 161.603 61.0917 162.16C61.0917 162.761 61.231 163.297 61.5097 163.766C61.803 164.221 62.1917 164.58 62.6757 164.844C63.1743 165.108 63.7317 165.24 64.3477 165.24ZM73.3959 167L79.3579 153.602H71.3499V151.6H81.7559V153.294L75.8379 167H73.3959ZM98.1698 159.08L98.5218 155.846L95.9258 157.76L95.0018 156.176L97.9938 154.922L95.0238 153.712L95.8818 152.172L98.5438 154.086L98.1698 150.83H99.9298L99.5558 154.086L102.196 152.172L103.032 153.69L100.062 154.944L103.054 156.176L102.152 157.738L99.5558 155.846L99.9078 159.08H98.1698ZM108.998 159.08L109.35 155.846L106.754 157.76L105.83 156.176L108.822 154.922L105.852 153.712L106.71 152.172L109.372 154.086L108.998 150.83H110.758L110.384 154.086L113.024 152.172L113.86 153.69L110.89 154.944L113.882 156.176L112.98 157.738L110.384 155.846L110.736 159.08H108.998ZM119.826 159.08L120.178 155.846L117.582 157.76L116.658 156.176L119.65 154.922L116.68 153.712L117.538 152.172L120.2 154.086L119.826 150.83H121.586L121.212 154.086L123.852 152.172L124.688 153.69L121.718 154.944L124.71 156.176L123.808 157.738L121.212 155.846L121.564 159.08H119.826ZM130.654 159.08L131.006 155.846L128.41 157.76L127.486 156.176L130.478 154.922L127.508 153.712L128.366 152.172L131.028 154.086L130.654 150.83H132.414L132.04 154.086L134.68 152.172L135.516 153.69L132.546 154.944L135.538 156.176L134.636 157.738L132.04 155.846L132.392 159.08H130.654ZM152.568 159.08L152.92 155.846L150.324 157.76L149.4 156.176L152.392 154.922L149.422 153.712L150.28 152.172L152.942 154.086L152.568 150.83H154.328L153.954 154.086L156.594 152.172L157.43 153.69L154.46 154.944L157.452 156.176L156.55 157.738L153.954 155.846L154.306 159.08H152.568ZM163.396 159.08L163.748 155.846L161.152 157.76L160.228 156.176L163.22 154.922L160.25 153.712L161.108 152.172L163.77 154.086L163.396 150.83H165.156L164.782 154.086L167.422 152.172L168.258 153.69L165.288 154.944L168.28 156.176L167.378 157.738L164.782 155.846L165.134 159.08H163.396ZM174.224 159.08L174.576 155.846L171.98 157.76L171.056 156.176L174.048 154.922L171.078 153.712L171.936 152.172L174.598 154.086L174.224 150.83H175.984L175.61 154.086L178.25 152.172L179.086 153.69L176.116 154.944L179.108 156.176L178.206 157.738L175.61 155.846L175.962 159.08H174.224ZM185.053 159.08L185.405 155.846L182.809 157.76L181.885 156.176L184.877 154.922L181.907 153.712L182.765 152.172L185.427 154.086L185.053 150.83H186.813L186.439 154.086L189.079 152.172L189.915 153.69L186.945 154.944L189.937 156.176L189.035 157.738L186.439 155.846L186.791 159.08H185.053ZM210.971 167V163.92H203.249V162.072L210.597 151.6H213.281V161.896H215.437V163.92H213.281V167H210.971ZM205.779 161.896H211.103V154.174L205.779 161.896ZM223.028 167.264C221.942 167.264 221.004 167.073 220.212 166.692C219.42 166.296 218.789 165.761 218.32 165.086C217.865 164.397 217.586 163.619 217.484 162.754H219.772C219.918 163.487 220.285 164.096 220.872 164.58C221.458 165.049 222.184 165.284 223.05 165.284C223.695 165.284 224.252 165.13 224.722 164.822C225.191 164.499 225.558 164.074 225.822 163.546C226.086 163.018 226.218 162.424 226.218 161.764C226.218 160.723 225.924 159.894 225.338 159.278C224.751 158.647 224.01 158.332 223.116 158.332C222.353 158.332 221.7 158.515 221.158 158.882C220.615 159.234 220.219 159.681 219.97 160.224H217.748L219.068 151.6H227.384V153.646H220.828L220.036 157.76C220.373 157.379 220.835 157.063 221.422 156.814C222.023 156.55 222.698 156.418 223.446 156.418C224.487 156.418 225.382 156.66 226.13 157.144C226.878 157.613 227.45 158.251 227.846 159.058C228.256 159.865 228.462 160.759 228.462 161.742C228.462 162.769 228.242 163.7 227.802 164.536C227.362 165.372 226.731 166.039 225.91 166.538C225.103 167.022 224.142 167.264 223.028 167.264ZM237.376 167.264C235.983 167.264 234.78 166.934 233.768 166.274C232.771 165.599 232.001 164.668 231.458 163.48C230.93 162.277 230.666 160.884 230.666 159.3C230.666 157.716 230.93 156.33 231.458 155.142C232.001 153.939 232.771 153.008 233.768 152.348C234.78 151.673 235.983 151.336 237.376 151.336C238.77 151.336 239.965 151.673 240.962 152.348C241.96 153.008 242.722 153.939 243.25 155.142C243.793 156.33 244.064 157.716 244.064 159.3C244.064 160.884 243.793 162.277 243.25 163.48C242.722 164.668 241.96 165.599 240.962 166.274C239.965 166.934 238.77 167.264 237.376 167.264ZM237.376 165.174C238.212 165.174 238.953 164.939 239.598 164.47C240.258 164.001 240.772 163.326 241.138 162.446C241.505 161.566 241.688 160.517 241.688 159.3C241.688 158.083 241.505 157.034 241.138 156.154C240.772 155.274 240.258 154.599 239.598 154.13C238.953 153.661 238.212 153.426 237.376 153.426C236.526 153.426 235.778 153.661 235.132 154.13C234.487 154.599 233.981 155.274 233.614 156.154C233.248 157.034 233.064 158.083 233.064 159.3C233.064 160.517 233.248 161.566 233.614 162.446C233.981 163.326 234.487 164.001 235.132 164.47C235.778 164.939 236.526 165.174 237.376 165.174ZM248.248 167V154.24L245.762 154.812V153.096L249.172 151.6H250.668V167H248.248Z" fill="white"/>
<path d="M31.036 130V120.2H32.212V124.526H37.294V120.2H38.47V130H37.294V125.492H32.212V130H31.036ZM43.59 130.168C42.9273 130.168 42.3393 130.019 41.826 129.72C41.3126 129.412 40.9066 128.987 40.608 128.446C40.3186 127.905 40.174 127.265 40.174 126.528C40.174 125.8 40.3186 125.165 40.608 124.624C40.8973 124.073 41.2986 123.649 41.812 123.35C42.3346 123.042 42.9366 122.888 43.618 122.888C44.29 122.888 44.8686 123.042 45.354 123.35C45.8486 123.649 46.2266 124.045 46.488 124.54C46.7493 125.035 46.88 125.567 46.88 126.136C46.88 126.239 46.8753 126.341 46.866 126.444C46.866 126.547 46.866 126.663 46.866 126.794H41.336C41.364 127.326 41.4853 127.769 41.7 128.124C41.924 128.469 42.1993 128.731 42.526 128.908C42.862 129.085 43.2166 129.174 43.59 129.174C44.0753 129.174 44.4813 129.062 44.808 128.838C45.1346 128.614 45.3726 128.311 45.522 127.928H46.684C46.4973 128.572 46.138 129.109 45.606 129.538C45.0833 129.958 44.4113 130.168 43.59 130.168ZM43.59 123.882C43.03 123.882 42.5306 124.055 42.092 124.4C41.6626 124.736 41.4153 125.231 41.35 125.884H45.718C45.69 125.259 45.4753 124.769 45.074 124.414C44.6726 124.059 44.178 123.882 43.59 123.882ZM48.4387 130V123.056H49.5027L49.5727 124.302C49.7967 123.863 50.1187 123.518 50.5387 123.266C50.9587 123.014 51.4347 122.888 51.9667 122.888C52.788 122.888 53.4413 123.14 53.9267 123.644C54.4213 124.139 54.6687 124.904 54.6687 125.94V130H53.4927V126.066C53.4927 124.619 52.8953 123.896 51.7007 123.896C51.1033 123.896 50.604 124.115 50.2027 124.554C49.8107 124.983 49.6147 125.599 49.6147 126.402V130H48.4387ZM56.4504 130V123.056H57.5144L57.6124 124.386C57.827 123.929 58.1537 123.565 58.5924 123.294C59.031 123.023 59.5724 122.888 60.2164 122.888V124.12H59.8944C59.4837 124.12 59.1057 124.195 58.7604 124.344C58.415 124.484 58.1397 124.727 57.9344 125.072C57.729 125.417 57.6264 125.893 57.6264 126.5V130H56.4504ZM62.2923 133.08L64.0143 129.328H63.6083L60.8503 123.056H62.1243L64.4203 128.46L66.8563 123.056H68.0743L63.5243 133.08H62.2923ZM73.0907 130V120.2H76.2547C77.02 120.2 77.6454 120.326 78.1307 120.578C78.616 120.83 78.9754 121.175 79.2087 121.614C79.442 122.053 79.5587 122.538 79.5587 123.07C79.5587 123.686 79.3907 124.241 79.0547 124.736C78.728 125.231 78.2147 125.581 77.5147 125.786L79.6567 130H78.2707L76.2827 125.954H76.1987H74.2667V130H73.0907ZM74.2667 125.03H76.1707C76.9267 125.03 77.4774 124.848 77.8227 124.484C78.168 124.12 78.3407 123.653 78.3407 123.084C78.3407 122.505 78.168 122.048 77.8227 121.712C77.4867 121.367 76.9314 121.194 76.1567 121.194H74.2667V125.03ZM82.0335 121.516C81.8002 121.516 81.6042 121.441 81.4455 121.292C81.2962 121.133 81.2215 120.937 81.2215 120.704C81.2215 120.48 81.2962 120.293 81.4455 120.144C81.6042 119.995 81.8002 119.92 82.0335 119.92C82.2575 119.92 82.4488 119.995 82.6075 120.144C82.7662 120.293 82.8455 120.48 82.8455 120.704C82.8455 120.937 82.7662 121.133 82.6075 121.292C82.4488 121.441 82.2575 121.516 82.0335 121.516ZM81.4455 130V123.056H82.6215V130H81.4455ZM87.8611 130.168C87.1985 130.168 86.6011 130.019 86.0691 129.72C85.5465 129.412 85.1311 128.987 84.8231 128.446C84.5245 127.895 84.3751 127.256 84.3751 126.528C84.3751 125.8 84.5245 125.165 84.8231 124.624C85.1311 124.073 85.5465 123.649 86.0691 123.35C86.6011 123.042 87.1985 122.888 87.8611 122.888C88.6825 122.888 89.3731 123.103 89.9331 123.532C90.5025 123.961 90.8618 124.535 91.0111 125.254H89.8071C89.7138 124.825 89.4851 124.493 89.1211 124.26C88.7571 124.017 88.3325 123.896 87.8471 123.896C87.4551 123.896 87.0865 123.994 86.7411 124.19C86.3958 124.386 86.1158 124.68 85.9011 125.072C85.6865 125.464 85.5791 125.949 85.5791 126.528C85.5791 127.107 85.6865 127.592 85.9011 127.984C86.1158 128.376 86.3958 128.675 86.7411 128.88C87.0865 129.076 87.4551 129.174 87.8471 129.174C88.3325 129.174 88.7571 129.057 89.1211 128.824C89.4851 128.581 89.7138 128.241 89.8071 127.802H91.0111C90.8711 128.502 90.5165 129.071 89.9471 129.51C89.3778 129.949 88.6825 130.168 87.8611 130.168ZM92.6535 130V119.92H93.8295V124.246C94.0628 123.817 94.3942 123.485 94.8235 123.252C95.2528 123.009 95.7195 122.888 96.2235 122.888C97.0262 122.888 97.6702 123.14 98.1555 123.644C98.6408 124.139 98.8835 124.904 98.8835 125.94V130H97.7215V126.066C97.7215 124.619 97.1382 123.896 95.9715 123.896C95.3648 123.896 94.8562 124.115 94.4455 124.554C94.0348 124.983 93.8295 125.599 93.8295 126.402V130H92.6535ZM102.975 130.168C102.397 130.168 101.916 130.07 101.533 129.874C101.151 129.678 100.866 129.417 100.679 129.09C100.493 128.763 100.399 128.409 100.399 128.026C100.399 127.317 100.67 126.771 101.211 126.388C101.753 126.005 102.49 125.814 103.423 125.814H105.299V125.73C105.299 125.123 105.141 124.666 104.823 124.358C104.506 124.041 104.081 123.882 103.549 123.882C103.092 123.882 102.695 123.999 102.359 124.232C102.033 124.456 101.827 124.787 101.743 125.226H100.539C100.586 124.722 100.754 124.297 101.043 123.952C101.342 123.607 101.711 123.345 102.149 123.168C102.588 122.981 103.055 122.888 103.549 122.888C104.52 122.888 105.248 123.149 105.733 123.672C106.228 124.185 106.475 124.871 106.475 125.73V130H105.425L105.355 128.754C105.159 129.146 104.87 129.482 104.487 129.762C104.114 130.033 103.61 130.168 102.975 130.168ZM103.157 129.174C103.605 129.174 103.988 129.057 104.305 128.824C104.632 128.591 104.879 128.287 105.047 127.914C105.215 127.541 105.299 127.149 105.299 126.738V126.724H103.521C102.831 126.724 102.341 126.845 102.051 127.088C101.771 127.321 101.631 127.615 101.631 127.97C101.631 128.334 101.762 128.628 102.023 128.852C102.294 129.067 102.672 129.174 103.157 129.174ZM108.239 130V123.056H109.303L109.401 124.386C109.616 123.929 109.943 123.565 110.381 123.294C110.82 123.023 111.361 122.888 112.005 122.888V124.12H111.683C111.273 124.12 110.895 124.195 110.549 124.344C110.204 124.484 109.929 124.727 109.723 125.072C109.518 125.417 109.415 125.893 109.415 126.5V130H108.239ZM116.216 130.168C115.525 130.168 114.918 130.009 114.396 129.692C113.882 129.375 113.481 128.941 113.192 128.39C112.912 127.839 112.772 127.214 112.772 126.514C112.772 125.814 112.916 125.193 113.206 124.652C113.495 124.101 113.896 123.672 114.41 123.364C114.923 123.047 115.53 122.888 116.23 122.888C116.799 122.888 117.303 123.005 117.742 123.238C118.18 123.471 118.521 123.798 118.764 124.218V119.92H119.94V130H118.876L118.764 128.852C118.54 129.188 118.218 129.491 117.798 129.762C117.378 130.033 116.85 130.168 116.216 130.168ZM116.342 129.146C116.808 129.146 117.219 129.039 117.574 128.824C117.938 128.6 118.218 128.292 118.414 127.9C118.619 127.508 118.722 127.051 118.722 126.528C118.722 126.005 118.619 125.548 118.414 125.156C118.218 124.764 117.938 124.461 117.574 124.246C117.219 124.022 116.808 123.91 116.342 123.91C115.884 123.91 115.474 124.022 115.11 124.246C114.755 124.461 114.475 124.764 114.27 125.156C114.074 125.548 113.976 126.005 113.976 126.528C113.976 127.051 114.074 127.508 114.27 127.9C114.475 128.292 114.755 128.6 115.11 128.824C115.474 129.039 115.884 129.146 116.342 129.146ZM124.517 130.168C123.686 130.168 122.995 129.958 122.445 129.538C121.894 129.118 121.572 128.549 121.479 127.83H122.683C122.757 128.194 122.949 128.511 123.257 128.782C123.574 129.043 123.999 129.174 124.531 129.174C125.025 129.174 125.389 129.071 125.623 128.866C125.856 128.651 125.973 128.399 125.973 128.11C125.973 127.69 125.819 127.41 125.511 127.27C125.212 127.13 124.787 127.004 124.237 126.892C123.863 126.817 123.49 126.71 123.117 126.57C122.743 126.43 122.431 126.234 122.179 125.982C121.927 125.721 121.801 125.38 121.801 124.96C121.801 124.353 122.025 123.859 122.473 123.476C122.93 123.084 123.546 122.888 124.321 122.888C125.058 122.888 125.66 123.075 126.127 123.448C126.603 123.812 126.878 124.335 126.953 125.016H125.791C125.744 124.661 125.59 124.386 125.329 124.19C125.077 123.985 124.736 123.882 124.307 123.882C123.887 123.882 123.56 123.971 123.327 124.148C123.103 124.325 122.991 124.559 122.991 124.848C122.991 125.128 123.135 125.347 123.425 125.506C123.723 125.665 124.125 125.8 124.629 125.912C125.058 126.005 125.464 126.122 125.847 126.262C126.239 126.393 126.556 126.593 126.799 126.864C127.051 127.125 127.177 127.508 127.177 128.012C127.186 128.637 126.948 129.155 126.463 129.566C125.987 129.967 125.338 130.168 124.517 130.168ZM132.021 130.168C131.367 130.168 130.779 130.019 130.257 129.72C129.734 129.421 129.319 129.001 129.011 128.46C128.712 127.909 128.563 127.265 128.563 126.528C128.563 125.791 128.717 125.151 129.025 124.61C129.333 124.059 129.748 123.635 130.271 123.336C130.803 123.037 131.395 122.888 132.049 122.888C132.702 122.888 133.29 123.037 133.813 123.336C134.335 123.635 134.746 124.059 135.045 124.61C135.353 125.151 135.507 125.791 135.507 126.528C135.507 127.265 135.353 127.909 135.045 128.46C134.737 129.001 134.317 129.421 133.785 129.72C133.262 130.019 132.674 130.168 132.021 130.168ZM132.021 129.16C132.422 129.16 132.795 129.062 133.141 128.866C133.486 128.67 133.766 128.376 133.981 127.984C134.195 127.592 134.303 127.107 134.303 126.528C134.303 125.949 134.195 125.464 133.981 125.072C133.775 124.68 133.5 124.386 133.155 124.19C132.809 123.994 132.441 123.896 132.049 123.896C131.647 123.896 131.274 123.994 130.929 124.19C130.583 124.386 130.303 124.68 130.089 125.072C129.874 125.464 129.767 125.949 129.767 126.528C129.767 127.107 129.874 127.592 130.089 127.984C130.303 128.376 130.579 128.67 130.915 128.866C131.26 129.062 131.629 129.16 132.021 129.16ZM137.142 130V123.056H138.206L138.276 124.302C138.5 123.863 138.822 123.518 139.242 123.266C139.662 123.014 140.138 122.888 140.67 122.888C141.491 122.888 142.144 123.14 142.63 123.644C143.124 124.139 143.372 124.904 143.372 125.94V130H142.196V126.066C142.196 124.619 141.598 123.896 140.404 123.896C139.806 123.896 139.307 124.115 138.906 124.554C138.514 124.983 138.318 125.599 138.318 126.402V130H137.142Z" fill="white"/>
<path fill-rule="evenodd" clip-rule="evenodd" d="M414 44.9996C414 48.6476 412.605 52.1006 410.071 54.7246C409.688 55.1216 409.054 55.1326 408.657 54.7496C408.454 54.5536 408.352 54.2916 408.352 54.0306C408.352 53.7806 408.445 53.5296 408.633 53.3356C410.804 51.0856 412 48.1256 412 44.9996C412 41.8736 410.804 38.9136 408.633 36.6636C408.248 36.2686 408.259 35.6346 408.657 35.2496C409.054 34.8676 409.688 34.8776 410.071 35.2756C412.605 37.8996 414 41.3526 414 44.9996ZM409 45C409 42.572 407.999 40.212 406.252 38.525C405.854 38.143 405.221 38.153 404.838 38.551C404.454 38.947 404.465 39.582 404.862 39.965C406.221 41.276 407 43.111 407 45C407 46.889 406.221 48.724 404.862 50.035C404.659 50.231 404.557 50.493 404.557 50.755C404.557 51.005 404.65 51.256 404.838 51.449C405.221 51.847 405.854 51.857 406.252 51.475C407.999 49.788 409 47.428 409 45ZM402.597 41.527C403.501 42.464 404 43.697 404 45C404 46.303 403.501 47.536 402.597 48.473C402.213 48.87 401.58 48.881 401.183 48.498C400.979 48.302 400.877 48.04 400.877 47.778C400.877 47.528 400.971 47.277 401.158 47.084C402.244 45.959 402.244 44.041 401.158 42.916C400.774 42.521 400.785 41.887 401.183 41.502C401.58 41.119 402.213 41.13 402.597 41.527ZM399 44C399.552 44 400 44.447 400 45C400 45.553 399.552 46 399 46C398.448 46 398 45.553 398 45C398 44.447 398.448 44 399 44Z" fill="white"/>
<path d="M38.426 52.264C36.9007 52.264 35.5807 51.934 34.466 51.274C33.366 50.5993 32.5153 49.668 31.914 48.48C31.3127 47.2773 31.012 45.8913 31.012 44.322C31.012 42.738 31.3127 41.352 31.914 40.164C32.5153 38.9613 33.366 38.0227 34.466 37.348C35.5807 36.6733 36.9007 36.336 38.426 36.336C40.23 36.336 41.704 36.776 42.848 37.656C43.992 38.536 44.718 39.768 45.026 41.352H42.43C42.2247 40.4573 41.7847 39.746 41.11 39.218C40.4353 38.69 39.5333 38.426 38.404 38.426C36.864 38.426 35.6467 38.954 34.752 40.01C33.8573 41.0513 33.41 42.4887 33.41 44.322C33.41 46.1407 33.8573 47.5707 34.752 48.612C35.6467 49.6533 36.864 50.174 38.404 50.174C39.5333 50.174 40.4353 49.9247 41.11 49.426C41.7847 48.9273 42.2247 48.2453 42.43 47.38H45.026C44.718 48.9053 43.992 50.1007 42.848 50.966C41.704 51.8313 40.23 52.264 38.426 52.264ZM47.5013 52V41.088H49.5913L49.7893 43.156C50.1707 42.4373 50.6987 41.8727 51.3733 41.462C52.0627 41.0367 52.8913 40.824 53.8593 40.824V43.266H53.2213C52.576 43.266 51.9967 43.376 51.4833 43.596C50.9847 43.8013 50.5813 44.1607 50.2733 44.674C49.98 45.1727 49.8333 45.8693 49.8333 46.764V52H47.5013ZM59.5548 52.264C58.6308 52.264 57.8681 52.11 57.2668 51.802C56.6654 51.494 56.2181 51.0907 55.9248 50.592C55.6314 50.0787 55.4848 49.5213 55.4848 48.92C55.4848 47.864 55.8954 47.028 56.7168 46.412C57.5381 45.796 58.7114 45.488 60.2368 45.488H63.0968V45.29C63.0968 44.4393 62.8621 43.8013 62.3928 43.376C61.9381 42.9507 61.3441 42.738 60.6108 42.738C59.9654 42.738 59.4008 42.8993 58.9168 43.222C58.4474 43.53 58.1614 43.992 58.0588 44.608H55.7268C55.8001 43.816 56.0641 43.1413 56.5188 42.584C56.9881 42.012 57.5748 41.5793 58.2788 41.286C58.9974 40.978 59.7821 40.824 60.6328 40.824C62.1581 40.824 63.3388 41.2273 64.1748 42.034C65.0108 42.826 65.4288 43.9113 65.4288 45.29V52H63.4048L63.2068 50.13C62.8988 50.7313 62.4514 51.2373 61.8648 51.648C61.2781 52.0587 60.5081 52.264 59.5548 52.264ZM60.0168 50.372C60.6474 50.372 61.1754 50.2253 61.6008 49.932C62.0408 49.624 62.3781 49.2207 62.6128 48.722C62.8621 48.2233 63.0161 47.6733 63.0748 47.072H60.4788C59.5548 47.072 58.8948 47.2333 58.4988 47.556C58.1174 47.8787 57.9268 48.282 57.9268 48.766C57.9268 49.2647 58.1101 49.6607 58.4768 49.954C58.8581 50.2327 59.3714 50.372 60.0168 50.372ZM68.6978 52V43.046H67.1358V41.088H68.6978V39.504C68.6978 38.316 68.9912 37.4653 69.5778 36.952C70.1792 36.424 71.0225 36.16 72.1078 36.16H73.2518V38.14H72.4598C71.9465 38.14 71.5798 38.25 71.3598 38.47C71.1398 38.6753 71.0298 39.0273 71.0298 39.526V41.088H73.5378V43.046H71.0298V52H68.6978ZM80.3293 52C79.2586 52 78.408 51.7433 77.7773 51.23C77.1466 50.702 76.8313 49.7707 76.8313 48.436V43.046H74.9613V41.088H76.8313L77.1173 38.316H79.1633V41.088H82.2433V43.046H79.1633V48.436C79.1633 49.0373 79.288 49.4553 79.5373 49.69C79.8013 49.91 80.2486 50.02 80.8793 50.02H82.1333V52H80.3293ZM86.8258 52L83.6138 41.088H85.9458L88.0578 49.316L90.4338 41.088H93.0298L95.4058 49.316L97.5178 41.088H99.8498L96.6378 52H94.2398L91.7318 43.42L89.2238 52H86.8258ZM106.467 52.264C105.425 52.264 104.487 52.0293 103.651 51.56C102.829 51.076 102.177 50.4087 101.693 49.558C101.209 48.6927 100.967 47.688 100.967 46.544C100.967 45.4 101.209 44.4027 101.693 43.552C102.191 42.6867 102.859 42.0193 103.695 41.55C104.531 41.066 105.462 40.824 106.489 40.824C107.53 40.824 108.461 41.066 109.283 41.55C110.119 42.0193 110.779 42.6867 111.263 43.552C111.761 44.4027 112.011 45.4 112.011 46.544C112.011 47.688 111.761 48.6927 111.263 49.558C110.779 50.4087 110.119 51.076 109.283 51.56C108.447 52.0293 107.508 52.264 106.467 52.264ZM106.467 50.262C107.024 50.262 107.537 50.1227 108.007 49.844C108.491 49.5653 108.879 49.1547 109.173 48.612C109.466 48.0547 109.613 47.3653 109.613 46.544C109.613 45.7227 109.466 45.0407 109.173 44.498C108.894 43.9407 108.513 43.5227 108.029 43.244C107.559 42.9653 107.046 42.826 106.489 42.826C105.931 42.826 105.411 42.9653 104.927 43.244C104.457 43.5227 104.076 43.9407 103.783 44.498C103.489 45.0407 103.343 45.7227 103.343 46.544C103.343 47.3653 103.489 48.0547 103.783 48.612C104.076 49.1547 104.457 49.5653 104.927 49.844C105.396 50.1227 105.909 50.262 106.467 50.262ZM114.533 52V41.088H116.623L116.821 43.156C117.202 42.4373 117.73 41.8727 118.405 41.462C119.094 41.0367 119.923 40.824 120.891 40.824V43.266H120.253C119.607 43.266 119.028 43.376 118.515 43.596C118.016 43.8013 117.613 44.1607 117.305 44.674C117.011 45.1727 116.865 45.8693 116.865 46.764V52H114.533ZM122.89 52V36.16H125.222V45.598L129.402 41.088H132.196L127.554 46.038L132.878 52H129.93L125.222 46.412V52H122.89ZM134.773 52V36.6H140.581C142.18 36.6 143.39 36.974 144.211 37.722C145.032 38.47 145.443 39.4087 145.443 40.538C145.443 41.5207 145.179 42.3053 144.651 42.892C144.123 43.464 143.485 43.8527 142.737 44.058C143.324 44.1753 143.844 44.41 144.299 44.762C144.768 45.114 145.135 45.554 145.399 46.082C145.663 46.61 145.795 47.182 145.795 47.798C145.795 48.59 145.597 49.3087 145.201 49.954C144.82 50.5847 144.255 51.0833 143.507 51.45C142.759 51.8167 141.842 52 140.757 52H134.773ZM137.105 43.2H140.295C141.19 43.2 141.872 42.9947 142.341 42.584C142.81 42.1587 143.045 41.5793 143.045 40.846C143.045 40.1273 142.81 39.5553 142.341 39.13C141.886 38.7047 141.19 38.492 140.251 38.492H137.105V43.2ZM137.105 50.086H140.449C141.388 50.086 142.114 49.866 142.627 49.426C143.155 48.986 143.419 48.37 143.419 47.578C143.419 46.786 143.148 46.1627 142.605 45.708C142.062 45.2387 141.329 45.004 140.405 45.004H137.105V50.086ZM151.959 52.264C151.035 52.264 150.272 52.11 149.671 51.802C149.07 51.494 148.622 51.0907 148.329 50.592C148.036 50.0787 147.889 49.5213 147.889 48.92C147.889 47.864 148.3 47.028 149.121 46.412C149.942 45.796 151.116 45.488 152.641 45.488H155.501V45.29C155.501 44.4393 155.266 43.8013 154.797 43.376C154.342 42.9507 153.748 42.738 153.015 42.738C152.37 42.738 151.805 42.8993 151.321 43.222C150.852 43.53 150.566 43.992 150.463 44.608H148.131C148.204 43.816 148.468 43.1413 148.923 42.584C149.392 42.012 149.979 41.5793 150.683 41.286C151.402 40.978 152.186 40.824 153.037 40.824C154.562 40.824 155.743 41.2273 156.579 42.034C157.415 42.826 157.833 43.9113 157.833 45.29V52H155.809L155.611 50.13C155.303 50.7313 154.856 51.2373 154.269 51.648C153.682 52.0587 152.912 52.264 151.959 52.264ZM152.421 50.372C153.052 50.372 153.58 50.2253 154.005 49.932C154.445 49.624 154.782 49.2207 155.017 48.722C155.266 48.2233 155.42 47.6733 155.479 47.072H152.883C151.959 47.072 151.299 47.2333 150.903 47.556C150.522 47.8787 150.331 48.282 150.331 48.766C150.331 49.2647 150.514 49.6607 150.881 49.954C151.262 50.2327 151.776 50.372 152.421 50.372ZM160.552 52V41.088H162.62L162.796 43.002C163.133 42.3273 163.625 41.7993 164.27 41.418C164.93 41.022 165.685 40.824 166.536 40.824C167.856 40.824 168.89 41.2347 169.638 42.056C170.401 42.8773 170.782 44.102 170.782 45.73V52H168.472V45.972C168.472 43.86 167.607 42.804 165.876 42.804C165.011 42.804 164.292 43.112 163.72 43.728C163.163 44.344 162.884 45.224 162.884 46.368V52H160.552ZM173.529 52V36.16H175.861V45.598L180.041 41.088H182.835L178.193 46.038L183.517 52H180.569L175.861 46.412V52H173.529Z" fill="white"/>
</svg>
